<?xml version="1.0" standalone="no"?>
<!DOCTYPE svg PUBLIC "-//W3C//DTD SVG 1.1//EN" "http://www.w3.org/Graphics/SVG/1.1/DTD/svg11.dtd" >
<svg xmlns="http://www.w3.org/2000/svg">
<metadata>Generated by IcoMoon</metadata>
<defs>
<font id="eoicons" horiz-adv-x="1024">
<font-face units-per-em="1024" ascent="960" descent="-64" />
<missing-glyph horiz-adv-x="1024" />
<glyph unicode="&#x20;" horiz-adv-x="512" d="" />
<glyph unicode="&#xe002;" glyph-name="warning" d="M556.212 336.137v181.060h-88.425v-181.060h88.425zM556.212 157.182v90.53h-88.425v-90.53h88.425zM17.243 22.44l494.757 852.667 494.757-852.667h-989.514z" />
<glyph unicode="&#xe028;" glyph-name="facebook" d="M592-64v468h156l24 182h-180v116c0 52 14 88 90 88h96v162c-16 4-74 8-140 8-140 0-234-84-234-240v-134h-158v-182h158v-468z" />
<glyph unicode="&#xe037;" glyph-name="arrow_left" d="M779.36-41.997l-736.024 468.664 736.024 468.664v-937.336z" />
<glyph unicode="&#xe038;" glyph-name="google" d="M328 510c0-44 0-86 0-128 60 0 120 0 180 0-8-42-32-78-66-102-22-14-48-24-72-28-26-4-54-6-80 0-26 4-50 16-72 32-36 24-62 60-76 100-14 42-14 86 0 128 10 28 26 56 48 78 26 26 62 46 98 54 32 6 66 6 96-4 28-8 52-22 72-42 20 20 40 40 60 60 10 12 22 22 32 32-30 30-66 52-106 66-70 26-150 26-222 2-80-28-148-88-186-162-12-26-22-54-28-84-14-70-4-146 28-212 22-42 52-80 90-108 36-28 76-50 120-62 54-14 112-14 168 0 50 10 96 34 134 68 40 38 68 86 82 138 18 56 20 116 10 174-104 0-206 0-310 0zM1024 502h-112v112h-82v-112h-112v-82h112v-112h82v112h112z" />
<glyph unicode="&#xe039;" glyph-name="arrow_up" d="M50.992 163.673l461.008 724.002 461.008-724.002h-922.016z" />
<glyph unicode="&#xe03a;" glyph-name="arrow_right" d="M244.64 895.331l736.024-468.664-736.024-468.664v937.336z" />
<glyph unicode="&#xe03b;" glyph-name="arrow_down" d="M1000.176 705.16l-488.176-766.669-488.176 766.669h976.352z" />
<glyph unicode="&#xe044;" glyph-name="instagram" d="M512 868c138 0 152-2 206-4 52-2 78-10 96-16 24-10 42-22 58-38 18-18 30-36 38-58 8-20 16-46 18-96 2-56 4-70 4-208s-2-152-4-206c-2-52-10-78-16-96-10-24-22-42-38-58-18-18-36-30-58-38-20-8-46-16-96-18-56-2-70-4-208-4s-152 2-206 4c-52 2-78 10-96 16-24 10-42 22-58 38-18 18-30 36-38 58-8 20-16 46-18 96-2 56-4 70-4 208s2 152 4 206c2 52 10 78 16 96 10 24 22 42 38 58 18 18 36 30 58 38 20 8 46 16 96 18 56 2 70 4 208 4M512 960c-140 0-156-2-210-4-56-2-94-10-124-22-34-14-64-32-92-60s-46-58-60-92c-12-32-20-68-22-124-2-54-4-70-4-210s2-156 4-210c2-56 10-94 22-124 14-34 32-64 60-92s58-46 92-60c32-12 68-20 124-22 54-2 70-4 210-4s156 2 210 4c56 2 94 10 124 22 34 14 64 32 92 60s46 58 60 92c12 32 20 68 22 124 2 54 4 70 4 210s-2 156-4 210c-2 56-10 94-22 124-14 34-32 64-60 92s-58 46-92 60c-32 12-68 20-124 22-54 2-70 4-210 4zM512 712c-146 0-264-118-264-264s118-264 264-264c146 0 264 118 264 264s-118 264-264 264zM512 276c-94 0-172 78-172 172s78 172 172 172c94 0 172-78 172-172s-78-172-172-172zM846 722c0-34-26-62-60-62s-62 28-62 62c0 34 28 60 62 60s60-26 60-60z" />
<glyph unicode="&#xe04c;" glyph-name="linkedin" d="M766 436c-14 16-38 24-72 24-44 0-74-14-92-38-18-26-26-62-26-108v-350c0-6-2-12-8-18-4-4-12-8-18-8h-184c-6 0-12 4-18 8-4 6-8 12-8 18v646c0 6 4 12 8 18 6 4 12 8 18 8h178c6 0 12-2 16-4s6-8 8-14c0-6 2-12 2-14s0-8 0-16c46 44 108 64 182 64 86 0 152-20 200-62 48-44 72-106 72-190v-436c0-6-2-12-8-18-4-4-12-8-18-8h-188c-6 0-12 4-18 8-4 6-8 12-8 18v394c0 34-6 60-18 78zM212 746c-24-24-54-36-88-36s-64 12-88 36c-24 24-36 52-36 88 0 34 12 62 36 86s54 38 88 38c34 0 64-14 88-38s36-52 36-86c0-36-12-64-36-88zM242 610v-646c0-6-4-12-8-18-6-4-12-8-18-8h-184c-6 0-12 4-18 8-4 6-8 12-8 18v646c0 6 4 12 8 18 6 4 12 8 18 8h184c6 0 12-4 18-8 4-6 8-12 8-18z" />
<glyph unicode="&#xe050;" glyph-name="mail" d="M546 330c-10-8-22-14-34-14s-24 6-34 14l-478 390v-614h1024v614zM512 448c10 0 20 4 28 10l406 332h-868l406-332c8-6 18-10 28-10z" />
<glyph unicode="&#xe063;" glyph-name="pinterest" d="M340 568c0 44 10 80 34 110 22 30 50 46 82 46 26 0 46-8 60-26s22-40 22-66c0-16-4-36-10-58-6-24-12-52-22-82-10-32-18-56-22-74-8-32-2-60 18-84 20-22 46-34 78-34 56 0 102 32 138 94 36 64 54 140 54 230 0 68-22 124-66 168-44 42-106 64-186 64-90 0-162-28-216-86-56-56-84-124-84-204 0-48 14-88 40-120 10-10 12-22 10-34-4-10-8-26-12-48-2-8-6-14-12-16s-12-2-18 0c-42 18-72 46-94 88s-32 90-32 144c0 36 6 70 18 106s28 70 52 102c24 34 54 62 86 88 34 26 74 46 124 62 48 14 100 22 154 22 58 0 110-10 158-30 48-18 90-44 122-76 34-34 58-70 78-112 18-42 28-86 28-130 0-120-30-220-92-298-62-80-140-118-236-118-32 0-62 6-90 22-28 14-48 32-60 54-22-94-36-150-42-168-12-46-40-102-86-168h-42c-8 82-6 150 6 204l78 330c-12 26-18 58-18 98z" />
<glyph unicode="&#xe071;" glyph-name="rss" d="M274 74c0-76-60-136-136-136s-136 60-136 136c0 74 60 136 136 136s136-62 136-136zM2 416c128 0 248-50 338-140s140-212 140-340h196c0 372-302 676-674 676zM2 764c454 0 824-372 824-828h196c0 564-458 1024-1020 1024z" />
<glyph unicode="&#xe078;" glyph-name="soundcloud" d="M20 284h-20v124h20zM72 244h-20v194h20zM112 232h-20v226h20zM154 222h-20v226h20zM204 222h-20v298h20zM246 222h-20v338h20zM296 222h-20v360h20zM338 222h-20v370h20zM390 222h-22v360h22zM430 222h-20v348h20zM472 222h-22v390h22zM522 222h-20v420h20zM898 226c-2 0-350 0-350 0-8 0-16 6-16 14v400c0 8 4 12 14 16 24 10 52 14 80 14 116 0 212-88 222-202 16 6 32 10 50 10 70 0 126-56 126-126s-56-126-126-126z" />
<glyph unicode="&#xe08d;" glyph-name="twitter" d="M920 656c0-8 0-18 0-26 0-278-212-598-598-598-118 0-230 34-322 94 16-2 34-2 50-2 98 0 190 32 262 90-92 0-170 62-198 146 14-4 26-4 40-4 20 0 38 2 56 6-96 20-168 106-168 206 0 2 0 2 0 4 28-16 60-26 94-26-56 36-94 102-94 174 0 38 12 74 30 106 102-128 258-212 432-220-4 16-6 32-6 48 0 116 94 210 210 210 62 0 116-26 154-66 48 10 94 26 134 50-16-48-50-90-92-116 42 6 82 16 120 34-28-42-64-80-104-110z" />
<glyph unicode="&#xe0a5;" glyph-name="youtube" d="M1014 652c0 0-10 72-40 102-40 42-84 42-104 44-142 10-358 10-358 10v0c0 0-216 0-358-10-20-2-64-2-104-44-30-30-40-102-40-102s-10-82-10-164v-78c0-84 10-166 10-166s10-70 40-102c40-40 92-40 114-44 82-8 348-10 348-10s216 0 358 10c20 2 64 4 104 44 30 32 40 102 40 102s10 82 10 166v78c0 82-10 164-10 164zM650 440v0l-242-126v288l276-144z" />
<glyph unicode="&#xe241;" glyph-name="list2" d="M262.265 804.135h757.468v-106.4h-757.468v106.4zM262.265 373.467v106.4h757.468v-106.4h-757.468zM262.265 49.199v106.4h757.468v-106.4h-757.468zM100.133 183.467c45.6 0 81.068-38 81.068-81.068s-38-81.068-81.068-81.068-81.068 38-81.068 81.068 35.468 81.068 81.068 81.068zM100.133 831.999c45.6 0 81.068-35.468 81.068-81.068s-35.468-81.068-81.068-81.068-81.068 35.468-81.068 81.068 35.468 81.068 81.068 81.068zM100.133 507.735c45.6 0 81.068-35.468 81.068-81.068s-35.468-81.068-81.068-81.068-81.068 35.468-81.068 81.068 35.468 81.068 81.068 81.068z" />
<glyph unicode="&#xe313;" glyph-name="arrow2_down" d="M130.752 772.905l381.248-381.248 381.248 381.248 116.707-116.707-497.955-497.955-497.955 497.955z" />
<glyph unicode="&#xe314;" glyph-name="arrow2_left" d="M779.67 62.969l-110-110-469.33 469.33 469.33 469.33 110-110-359.33-359.33z" />
<glyph unicode="&#xe315;" glyph-name="arrow2_right" d="M244.33 62.302l359.33 359.33-359.33 359.33 110 110 469.33-469.33-469.33-469.33z" />
<glyph unicode="&#xe316;" glyph-name="arrow2_up" d="M130.752 142.676l-116.707 116.707 497.955 497.955 497.955-497.955-116.707-116.707-381.248 381.248z" />
<glyph unicode="&#xe323;" glyph-name="mouse2" d="M466.051 936.479v-369.778h-328.205c0 190.359 144.41 347.897 328.205 369.778zM137.846 286.633v185.983h748.308v-185.983c0-205.675-168.479-374.154-374.154-374.154s-374.154 168.479-374.154 374.154zM557.949 936.479c183.795-21.88 328.205-179.419 328.205-369.778h-328.205v369.778z" />
<glyph unicode="&#xe419;" glyph-name="rotate_left" d="M562.872 765.948c203.484-24.224 363.368-198.64 363.368-409.392s-159.88-385.168-363.368-409.392v104.164c147.768 24.224 259.2 152.612 259.2 305.228s-111.432 281.004-259.2 305.228v-201.064l-234.976 230.132 234.976 234.976v-159.88zM257.644 29.526l75.096 75.096c38.76-29.068 82.364-46.028 128.388-53.292v-104.164c-72.672 9.688-142.924 36.336-203.484 82.364zM206.772 305.682c7.268-46.028 24.224-89.632 50.872-128.388l-72.672-72.672c-46.028 60.56-72.672 128.388-82.364 201.064h104.164zM260.068 535.816c-26.648-38.76-46.028-82.364-53.292-128.388h-104.164c9.688 72.672 38.76 140.5 84.784 201.064z" />
<glyph unicode="&#xe41a;" glyph-name="rotate_right" d="M763.932 174.396c29.068 38.76 46.028 82.364 53.292 128.388h104.164c-9.688-72.672-36.336-140.5-82.364-201.064zM562.872 48.428c46.028 7.268 89.632 24.224 128.388 53.292l75.096-75.096c-60.56-46.028-130.812-72.672-203.484-82.364v104.164zM921.392 404.528h-104.164c-7.268 46.028-24.224 89.632-53.292 128.388l75.096 72.672c46.028-60.56 72.672-128.388 82.364-201.064zM696.104 687.952l-234.976-230.132v201.064c-147.768-24.224-259.2-152.612-259.2-305.228s111.432-281.004 259.2-305.228v-104.164c-203.484 24.224-363.368 198.64-363.368 409.392s159.88 385.168 363.368 409.392v159.88z" />
<glyph unicode="&#xe531;" glyph-name="car" d="M120.785 481.807h782.43l-84.020 252.060h-614.395zM819.195 203.492c47.26 0 84.020 36.76 84.020 84.020s-36.76 84.020-84.020 84.020-84.020-36.76-84.020-84.020 36.76-84.020 84.020-84.020zM204.805 203.492c47.26 0 84.020 36.76 84.020 84.020s-36.76 84.020-84.020 84.020-84.020-36.76-84.020-84.020 36.76-84.020 84.020-84.020zM900.59 762.747l115.525-336.080v-448.98c0-31.505-23.63-55.14-55.14-55.14h-57.765c-31.505 0-55.14 23.63-55.14 55.14v57.765h-672.155v-57.765c0-31.505-23.63-55.14-55.14-55.14h-57.765c-31.505 0-55.14 23.63-55.14 55.14v448.98l115.525 336.080c10.5 34.135 44.635 55.14 81.395 55.14h614.395c36.76 0 70.89-21.005 81.395-55.14z" />
<glyph unicode="&#xe55c;" glyph-name="currentlocation" d="M512 115.141c173.535 0 311.526 137.991 311.526 311.526s-137.991 311.526-311.526 311.526-311.526-137.991-311.526-311.526 137.991-311.526 311.526-311.526zM911.339 470.573h91.994v-87.813h-91.994c-20.908-186.079-169.353-334.525-355.433-355.433v-91.994h-87.813v91.994c-186.079 20.908-334.525 169.353-355.433 355.433h-91.994v87.813h91.994c20.908 186.079 169.353 334.525 355.433 355.433v91.994h87.813v-91.994c186.079-20.908 334.525-169.353 355.433-355.433zM512 604.383c98.267 0 177.716-79.45 177.716-177.716s-79.45-177.716-177.716-177.716-177.716 79.45-177.716 177.716 79.45 177.716 177.716 177.716z" />
<glyph unicode="&#xe56c;" glyph-name="restaurant" d="M682 682.667c0 76 96 170 214 170v-852h-106v340h-108v342zM470 554.667v298h84v-298c0-90-70-164-160-170v-384h-106v384c-90 6-160 80-160 170v298h86v-298h84v298h86v-298h86z" />
<glyph unicode="&#xe5ca;" glyph-name="ok" d="M345.808 195.559l586.864 586.864 77.904-77.904-664.764-664.764-309.012 309.012 77.904 77.904z" />
<glyph unicode="&#xe5cd;" glyph-name="close" d="M1001.997 818.009l-391.342-391.342 391.342-391.342-98.655-98.655-391.342 391.342-391.342-391.342-98.655 98.655 391.342 391.342-391.342 391.342 98.655 98.655 391.342-391.342 391.342 391.342z" />
<glyph unicode="&#xe5d2;" glyph-name="list" d="M0.002 768h1024v-114.667h-1024v114.667zM0.002 370.667v112h1024v-112h-1024zM0.002 85.334v114.667h1024v-114.667h-1024z" />
<glyph unicode="&#xe611;" glyph-name="ban_circle" d="M512 50.413c206.83 0 376.254 169.424 376.254 376.254 0 83.612-30.804 165.024-81.412 231.032l-525.874-525.874c66.010-50.608 147.42-81.412 231.032-81.412zM135.746 426.667c0-83.612 30.804-165.024 81.412-231.032l525.874 525.874c-66.010 50.608-147.42 81.412-231.032 81.412-206.83 0-376.254-169.424-376.254-376.254zM512 895.333c257.436 0 468.666-211.23 468.666-468.666s-211.23-468.666-468.666-468.666-468.666 211.23-468.666 468.666 211.23 468.666 468.666 468.666z" />
<glyph unicode="&#xe886;" glyph-name="group_work" d="M682 192.667c58 0 108 48 108 106s-50 106-108 106-106-48-106-106 48-106 106-106zM406 596.667c0-58 48-106 106-106s106 48 106 106-48 108-106 108-106-50-106-108zM342 192.667c58 0 106 48 106 106s-48 106-106 106-108-48-108-106 50-106 108-106zM512 852.667c236 0 426-190 426-426s-190-426-426-426-426 190-426 426 190 426 426 426z" />
<glyph unicode="&#xe887;" glyph-name="help" d="M668.040 465.079c28.808 28.808 48.012 69.62 48.012 115.232 0 112.828-91.224 204.052-204.052 204.052s-204.052-91.224-204.052-204.052h100.828c0 55.216 48.012 103.228 103.228 103.228s103.228-48.012 103.228-103.228c0-28.808-12.004-52.812-31.208-72.020l-62.416-64.816c-36.008-38.412-60.016-88.824-60.016-144.036v-26.408h100.828c0 76.82 24.008 105.628 60.016 144.036zM562.412 68.975v100.828h-100.828v-100.828h100.828zM512 937.999c283.272 0 511.332-228.060 511.332-511.332s-228.060-511.332-511.332-511.332-511.332 228.060-511.332 511.332 228.060 511.332 511.332 511.332z" />
<glyph unicode="&#xe88a;" glyph-name="house2" d="M410.838 24.37h-249.377v402.297h-150.566l501.108 451.701 501.108-451.701h-150.566v-402.297h-249.377v301.135h-202.324v-301.135z" />
<glyph unicode="&#xe88f;" glyph-name="info2" d="M463.691 573.897v98.921h96.621v-98.921h-96.621zM512 33.286c216.245 0 393.381 177.136 393.381 393.381s-177.136 393.381-393.381 393.381-393.381-177.136-393.381-393.381 177.136-393.381 393.381-393.381zM512 916.666c271.454 0 489.999-218.545 489.999-489.999s-218.545-489.999-489.999-489.999-489.999 218.545-489.999 489.999 218.545 489.999 489.999 489.999zM463.691 180.516v294.46h96.621v-294.46h-96.621z" />
<glyph unicode="&#xe8b5;" glyph-name="time1" d="M534 640.667v-224l192-114-32-54-224 136v256h64zM512 84.667c188 0 342 154 342 342s-154 342-342 342-342-154-342-342 154-342 342-342zM512 852.667c236 0 426-190 426-426s-190-426-426-426-426 190-426 426 190 426 426 426z" />
<glyph unicode="&#xe8b8;" glyph-name="settings2" d="M512 246.611c98.428 0 180.056 81.624 180.056 180.056s-81.624 180.056-180.056 180.056-180.056-81.624-180.056-180.056 81.624-180.056 180.056-180.056zM893.716 376.251l108.032-84.024c9.604-7.204 12.004-21.608 4.8-33.612l-103.232-177.652c-7.204-12.004-19.204-14.404-31.208-9.604l-127.24 50.416c-26.408-19.204-55.216-38.412-86.424-50.416l-19.204-134.44c-2.4-12.004-12.004-21.608-24.008-21.608h-206.46c-12.004 0-21.608 9.604-24.008 21.608l-19.204 134.44c-31.208 12.004-60.020 28.808-86.424 50.416l-127.24-50.416c-12.004-4.8-24.008-2.4-31.208 9.604l-103.232 177.652c-7.204 12.004-4.8 26.408 4.8 33.612l108.032 84.024c-2.4 16.804-2.4 33.612-2.4 50.416s0 33.612 2.4 50.416l-108.032 84.024c-9.604 7.204-12.004 21.608-4.8 33.612l103.232 177.652c7.204 12.004 19.204 14.404 31.208 9.604l127.24-50.416c26.408 19.204 55.216 38.412 86.424 50.416l19.204 134.44c2.4 12.004 12.004 21.608 24.008 21.608h206.46c12.004 0 21.608-9.604 24.008-21.608l19.204-134.44c31.208-12.004 60.020-28.808 86.424-50.416l127.24 50.416c12.004 4.8 24.008 2.4 31.208-9.604l103.232-177.652c7.204-12.004 4.8-26.408-4.8-33.612l-108.032-84.024c2.4-16.804 2.4-33.612 2.4-50.416s0-33.612-2.4-50.416z" />
<glyph unicode="&#xe900;" glyph-name="formapplication" d="M512 796.872v163.128h-430.258c-20.547 0-37.22-16.651-37.22-37.22v-949.56c0-20.547 16.673-37.22 37.22-37.22h637.907c20.547 0 37.22 16.673 37.22 37.22v741.91h-163.128c-38.934 0-81.742 42.83-81.742 81.742zM604.294 781.802l119.185 0.134-144.696 144.696v-119.341c0-6.79 2.671-13.267 7.457-18.031 4.786-4.786 11.264-7.457 18.054-7.457zM962.961 870.957h-56.008c-9.105 0-16.518-7.391-16.518-16.518v-718.091h89.043v718.091c0 9.127-7.413 16.518-16.518 16.518zM919.864-17.252c2.315-6.767 8.682-10.863 15.783-10.797 7.123 0.045 13.446 4.007 15.605 10.797l28.227 86.817h-89.043l29.429-86.817z" />
<glyph unicode="&#xe901;" glyph-name="users" d="M281.044 786.027c0 72.492 58.769 131.261 131.271 131.261 72.492 0 131.267-58.769 131.267-131.261s-58.775-131.259-131.267-131.259c-72.502-0.002-131.271 58.767-131.271 131.259zM475.397 565.34c1.316 28.582 11.156 55.037 26.985 76.906-11.11 2.327-22.592 3.563-34.374 3.563h-111.372c-11.748 0-23.215-1.226-34.267-3.524 16.846-23.366 26.922-51.902 27.087-82.794 20.477 11.263 43.973 17.675 68.93 17.675 20.244 0 39.516-4.218 57.012-11.826zM497.616 553.558c38.128-23.91 64.865-64.351 69.755-111.315 15.536-7.261 32.8-11.45 51.090-11.45 66.796 0 120.937 54.146 120.937 120.94 0 66.802-54.141 120.937-120.937 120.937-66.185-0.002-119.84-53.176-120.845-119.112zM418.383 305.927c66.784 0 120.929 54.162 120.929 120.937 0 66.784-54.145 120.937-120.929 120.937-66.79 0-120.958-54.15-120.958-120.937 0.002-66.775 54.167-120.937 120.958-120.937zM469.683 297.696h-102.61c-85.38 0-154.858-69.472-154.858-154.864v-125.506l0.327-1.966 8.638-2.686c81.485-25.45 152.277-33.961 210.55-33.961 113.792 0 179.776 32.449 183.841 34.525l8.082 4.090h0.858v125.506c0.002 85.39-69.436 154.862-154.827 154.862zM669.788 422.539h-101.84c-1.106-40.748-18.496-77.443-45.999-103.819 75.896-22.569 131.425-92.945 131.425-176.078v-38.672c100.532 3.702 158.476 32.179 162.292 34.099l8.084 4.111h0.858v125.529c0.011 85.369-69.461 154.831-154.82 154.831zM697.010 675.249c38.129-23.914 64.865-64.356 69.743-111.321 15.538-7.261 32.8-11.442 51.090-11.442 66.809 0 120.946 54.139 120.946 120.923 0 66.803-54.139 120.937-120.946 120.937-66.175 0.008-119.827-53.178-120.833-119.097zM869.159 544.23h-101.819c-1.106-40.748-18.495-77.443-45.998-103.817 75.894-22.561 131.424-92.946 131.424-176.080v-38.672c100.522 3.694 158.478 32.168 162.294 34.101l8.072 4.097h0.869v125.544c0.011 85.361-69.461 154.827-154.843 154.827zM206.181 430.791c23.66 0 45.659 6.911 64.316 18.676 5.933 38.664 26.663 72.458 56.263 95.462 0.124 2.269 0.332 4.51 0.332 6.802 0 66.802-54.156 120.937-120.912 120.937-66.813 0-120.946-54.133-120.946-120.937s54.131-120.94 120.946-120.94zM314.791 318.72c-27.375 26.25-44.706 62.744-45.982 103.256-3.765 0.281-7.503 0.564-11.352 0.564h-102.599c-85.392 0-154.858-69.462-154.858-154.843v-125.517l0.317-1.954 8.649-2.697c65.356-20.437 123.706-29.83 174.386-32.766v37.893c0.010 83.12 55.526 153.507 131.439 176.065z" />
<glyph unicode="&#xe902;" glyph-name="projects" d="M0 192.001h311.652v-111.303h-311.652v111.303zM356.174 192.001h311.652v-111.303h-311.652v111.303zM178.087 347.826h311.652v-111.303h-311.652v111.303zM0 503.653h311.652v-111.303h-311.652v111.303zM356.174 503.653h311.652v-111.303h-311.652v111.303zM178.087 659.478h311.652v-111.303h-311.652v111.303zM534.261 347.826h311.652v-111.303h-311.652v111.303zM534.261 659.478h311.652v-111.303h-311.652v111.303zM0 815.305h311.652v-111.303h-311.652v111.303zM356.174 815.305h311.652v-111.303h-311.652v111.303zM712.348 192.001h311.652v-111.303h-311.652v111.303zM712.348 503.653h311.652v-111.303h-311.652v111.303zM712.348 815.305h311.652v-111.303h-311.652v111.303z" />
<glyph unicode="&#xe903;" glyph-name="businessman" d="M295.342 648.901c6.638-87.181 41.312-49.603 48.465-87.807 11.893-63.505 68.118-109.436 103.117-125.301 20.419-9.251 41.446-13.893 63.554-14.264v-0.019c0.077 0 0.153 0.009 0.23 0.009s0.153-0.009 0.23-0.009v0.019c22.106 0.37 43.131 5.011 63.554 14.264 34.999 15.866 91.223 61.796 103.117 125.301 7.153 38.201 41.827 0.626 48.465 87.807 0 34.744-18.931 43.39-18.931 43.39s9.623 51.426 13.393 90.998c4.67 49.316-28.787 176.711-207.248 176.711-0.781 0-1.504-0.043-2.266-0.051-0.028 0-0.053 0-0.081 0.002v0.009c-0.077-0.002-0.153-0.004-0.23-0.004s-0.153 0.002-0.23 0.004v-0.011c-0.028-0.002-0.053-0.002-0.081-0.002-0.762 0.011-1.485 0.051-2.266 0.051-178.46 0-211.919-127.395-207.248-176.711 3.768-39.571 13.393-90.998 13.393-90.998s-18.936-8.644-18.936-43.388zM915.539 220.93c-90.015 45.793-220.484 102.989-226.746 105.008-0.070 0.026-0.123 0.030-0.191 0.051-3.662 1.304-7.598 2.028-11.71 2.028-15.293 0-28.265-9.796-33.078-23.448-0.026 0.017-0.051 0.028-0.077 0.045-23.234-55.988-65.911-155.79-92.411-203.914l-6.383 134.918c0 0 39.797 84.464 44.152 92.202 10.255 18.138 1.019 33.58-18.206 33.58-9.536 0-33.393 0-57.288 0-0.028 0-0.053 0-0.081 0-0.153 0-0.306 0-0.46 0-0.028 0-0.053 0-0.081 0-0.328 0-0.655 0-0.983 0s-0.655 0-0.983 0c-0.028 0-0.053 0-0.081 0-0.153 0-0.306 0-0.46 0-0.028 0-0.053 0-0.081 0-23.893 0-47.748 0-57.288 0-19.225 0-28.459-15.442-18.206-33.58 4.357-7.738 44.152-92.202 44.152-92.202l-6.381-134.918c-26.499 48.124-69.177 147.92-92.411 203.914-0.026-0.017-0.051-0.028-0.077-0.045-4.813 13.646-17.785 23.448-33.078 23.448-4.113 0-8.049-0.723-11.71-2.028-0.068-0.026-0.121-0.032-0.191-0.051-6.259-2.019-136.731-59.216-226.746-105.008-40.425-20.565-64.822-46.144-64.822-73.062 0-88.989 0-211.867 0-211.867h936.727c0 0 0 122.878 0 211.867-0.002 26.919-24.397 52.497-64.822 73.062z" />
<glyph unicode="&#xe904;" glyph-name="cycling" d="M682.667 738.133c42.667 0 76.8 34.133 76.8 76.8s-34.133 76.8-76.8 76.8-76.8-34.133-76.8-76.8 34.133-76.8 76.8-76.8zM810.667 430.933c-119.467 0-213.333-93.867-213.333-213.333s93.867-213.333 213.333-213.333 213.333 93.865 213.333 213.333-93.867 213.333-213.333 213.333zM810.667 68.267c-81.067 0-149.333 68.268-149.333 149.333 0 81.068 68.267 149.333 149.333 149.333s149.333-68.265 149.333-149.333c0-81.065-68.267-149.333-149.333-149.333zM631.467 516.267h179.2v76.8h-136.533l-81.067 140.8c-12.8 21.333-34.133 34.133-64 34.133-21.333 0-38.4-8.533-51.2-21.333l-157.867-157.867c-12.8-12.8-21.333-29.867-21.333-51.2 0-25.6 12.8-51.2 34.133-64l145.067-85.333v-213.333h76.8v277.333l-93.867 72.533 98.133 98.133 72.533-106.667zM213.333 430.933c-119.467 0-213.333-93.867-213.333-213.333s93.867-213.333 213.333-213.333 213.333 93.865 213.333 213.333-93.867 213.333-213.333 213.333zM213.333 68.267c-81.067 0-149.333 68.268-149.333 149.333 0 81.068 68.267 149.333 149.333 149.333s149.333-68.265 149.333-149.333c0-81.065-68.267-149.333-149.333-149.333z" />
<glyph unicode="&#xe905;" glyph-name="documents" d="M903.989 735.458h-37.372v-719.559c0-8.979-7.28-16.27-16.27-16.27h-532.061v-37.372c0-8.99 7.28-16.27 16.27-16.27h569.443c8.99 0 16.27 7.28 16.27 16.27v756.939c-0.010 8.99-7.291 16.26-16.28 16.26zM812.985 69.531v756.939c0 8.99-7.28 16.27-16.27 16.27h-37.372v-719.57c0-8.99-7.28-16.27-16.27-16.27h-532.071v-37.372c0-8.99 7.28-16.27 16.27-16.27 0 0 0 0 0 0h569.443c8.99 0 16.27 7.28 16.27 16.27zM705.714 176.802v756.939c0 8.99-7.28 16.27-16.27 16.27h-569.43c-8.99 0-16.27-7.28-16.27-16.27v-756.939c0-8.99 7.28-16.27 16.27-16.27h569.43c8.99 0 16.27 7.28 16.27 16.27z" />
<glyph unicode="&#xe906;" glyph-name="megaphone" d="M220.331 724.5c-106.16 0-192.212-86.051-192.212-192.212s86.051-192.212 192.212-192.212c17.46 0 31.805 12.825 34.422 29.535h0.548v319.896c0 19.306-15.664 34.993-34.983 34.993zM995.903 881.361c0 19.306-15.654 34.983-34.983 34.983-8.012 0-15.306-2.808-21.196-7.337l-307.81-177.719h-277.472c-19.328 0-34.983-15.654-34.983-34.983v-332.024h0.432c2.154-17.248 16.7-30.654 34.538-30.654h246.205l336.542-194.303c6.238-5.784 14.535-9.405 23.719-9.405 19.306 0 34.983 15.664 34.983 34.983 0 1.331-0.243 2.586-0.391 3.874h0.391v710.548h-0.212c0.043 0.687 0.212 1.331 0.212 2.038zM591.919 67.555l-0.485 0.844c-0.169 0.306-0.243 0.634-0.422 0.94s-0.412 0.538-0.591 0.823l-106.847 185.034-0.401-0.232c-5.837 8.022-14.535 12.941-23.888 14.103v0.391h-92.913v-0.232c-4.993-0.412-9.976-1.783-14.598-4.465-16.742-9.648-22.463-31.055-12.805-47.775 0.823-1.414 1.826-2.649 2.819-3.895l-0.412-0.243 124.507-215.667c0.010-0.020 0.010-0.043 0.020-0.063s0.020-0.043 0.043-0.053l1.245-2.164 0.222 0.126c10.219-14.99 30.305-19.93 46.267-10.704 1.869 1.076 3.546 2.354 5.13 3.695l0.316-0.548 64.106 36.998-0.296 0.518c12.414 10.249 16.255 27.858 8.888 42.529l0.096 0.053z" />
<glyph unicode="&#xe907;" glyph-name="alert" d="M1015.022 64.666l0.070 0.050-1.702 2.935c-0.831 1.563-1.633 3.136-2.635 4.578l-460.502 797.639c-7.463 13.552-21.696 22.848-38.283 22.848-17.96 0-33.365-10.838-40.136-26.304l-0.050 0.020-456.925-791.439 0.441-0.26c-6.17-7.552-10.017-17.068-10.017-27.576 0-24.22 19.633-43.863 43.842-43.863v0h925.731c24.22 0 43.852 19.633 43.852 43.852 0 6.241-1.342 12.141-3.686 17.519zM512.43 86.132c-35.118 0-63.545 27.576-63.545 62.683 0 35.118 28.417 63.535 63.545 63.535 34.247 0 62.683-28.407 62.683-63.535 0.010-35.099-28.427-62.683-62.683-62.683zM575.105 640.438v-345.762h-0.020c0-0.060 0.020-0.12 0.020-0.2 0-14.334-11.609-25.583-25.583-25.583-0.060 0-0.11 0.010-0.17 0.010v-0.010h-74.443c-14.344 0-25.943 11.249-25.943 25.583 0 0.060 0.020 0.12 0.020 0.2h-0.020v344.831c-0.010 0.32-0.1 0.621-0.1 0.941 0 13.652 10.568 24.39 23.639 25.392v0.2l76.827-0.010c14.043-0.090 25.342-10.958 25.693-24.911h0.060v-0.671c0.020 0 0.010 0 0.010 0z" />
<glyph unicode="&#xe908;" glyph-name="star" d="M1020.208 572.277c-3.407 9.843-12.679 16.432-23.103 16.432h-344.609l-117.433 332.338c-3.478 9.782-12.709 16.32-23.083 16.32-10.353 0-19.604-6.538-23.062-16.32l-117.444-332.338h-344.568c-10.414 0-19.686-6.599-23.144-16.432-3.407-9.843-0.224-20.778 7.966-27.234l269.037-213.028-120.412-340.743c-3.437-9.731-0.377-20.584 7.589-27.102 8.007-6.559 19.248-7.375 28.111-2.040l315.926 189.517 315.926-189.517c3.876-2.336 8.282-3.488 12.628-3.488 5.467 0 10.986 1.856 15.494 5.528 7.966 6.518 11.026 17.381 7.589 27.102l-120.412 340.743 269.108 213.028c8.16 6.457 11.342 17.401 7.905 27.234z" />
<glyph unicode="&#xe909;" glyph-name="mayor" d="M926.545 304.492l-306.264 146.089c39.742 25.041 72.036 63.692 93.167 110.247 16.755 36.97 26.733 78.812 26.733 123.562 0 25.108-3.994 48.955-9.539 71.969-27.085 111.499-114.147 193.637-218.678 193.637-102.545 0-188.304-79.205-217.054-187.539-6.642-24.85-11.21-50.693-11.21-78.067 0-47.548 11.106-91.868 29.981-130.415 21.819-44.729 54.154-81.595 93.513-105.307l-309.398-144.082c-19.305-9.042-31.988-30.814-31.988-55.137v-244.17c0-32.733 22.796-59.249 50.952-59.249h330.053v186.948c0 2.017 0.688 3.823 1.635 5.447l-0.134 0.077 54.050 93.627 0.134-0.077c1.93 3.306 5.343 5.638 9.435 5.638s7.521-2.323 9.435-5.638l0.057 0.047 0.497-0.869c0.067-0.134 0.171-0.248 0.228-0.383l53.341-92.375-0.067-0.047c0.947-1.635 1.635-3.43 1.635-5.457v-186.948h330.053c28.156 0 50.962 26.531 50.962 59.249v244.18c0.047 24.229-12.435 45.8-31.559 55.043zM575.501 367.103l0.134-0.077-54.076-93.627-0.134 0.077c-1.93-3.306-5.343-5.628-9.435-5.628s-7.521 2.323-9.435 5.628l-0.067-0.047-0.554 0.947c-0.047 0.104-0.124 0.181-0.171 0.269l-53.341 92.412 0.057 0.047c-0.947 1.635-1.635 3.43-1.635 5.457 0 6.109 4.961 11.085 11.085 11.085h108.116c6.109 0 11.085-4.961 11.085-11.085 0.020-2.028-0.668-3.823-1.614-5.457z" />
<glyph unicode="&#xe90a;" glyph-name="arrows-in" d="M368.589 44.902l48.026 289.505c0.87 5.243-0.84 10.588-4.598 14.346-0.020 0.020-0.020 0.020-0.020 0.020-3.789 3.768-9.144 5.478-14.397 4.577l-288.748-48.783c-6.083-1.024-11.069-5.376-12.943-11.264-1.894-5.857-0.317-12.308 4.045-16.671l56.453-56.453-151.562-151.572c-6.451-6.441-6.451-16.865 0-23.316l104.448-104.458c6.451-6.441 16.876-6.441 23.327 0l151.572 151.572 56.474-56.474c4.352-4.352 10.803-5.908 16.691-4.035s10.22 6.902 11.233 13.005zM655.421 851.098l-48.026-289.516c-0.87-5.243 0.85-10.578 4.598-14.336 0.020-0.031 0.020-0.031 0.020-0.031 3.789-3.758 9.144-5.468 14.397-4.577l288.727 48.804c6.083 1.024 11.069 5.376 12.954 11.264 1.894 5.857 0.317 12.308-4.055 16.671l-56.453 56.453 151.572 151.572c6.441 6.441 6.441 16.876 0 23.327l-104.448 104.448c-6.451 6.451-16.876 6.451-23.327 0l-151.562-151.583-56.474 56.474c-4.352 4.352-10.813 5.919-16.691 4.045-5.888-1.894-10.23-6.912-11.233-13.015zM915.098 304.579l-289.495 48.026c-5.243 0.87-10.598-0.84-14.346-4.598-0.031-0.031-0.031-0.031-0.031-0.031-3.768-3.779-5.478-9.134-4.577-14.397l48.794-288.727c1.024-6.083 5.376-11.080 11.254-12.943 5.857-1.894 12.308-0.328 16.681 4.045l56.453 56.453 151.583-151.583c6.441-6.431 16.865-6.431 23.316 0.020l104.458 104.448c6.441 6.441 6.441 16.876 0 23.327l-151.583 151.562 56.484 56.474c4.342 4.362 5.908 10.803 4.035 16.691-1.894 5.888-6.922 10.23-13.025 11.233zM108.902 591.411l289.505-48.026c5.253-0.881 10.588 0.84 14.346 4.598 0.020 0.031 0.020 0.031 0.020 0.031 3.768 3.789 5.478 9.134 4.588 14.397l-48.794 288.737c-1.024 6.072-5.376 11.069-11.254 12.943-5.868 1.905-12.308 0.328-16.681-4.045l-56.453-56.453-151.562 151.562c-6.451 6.451-16.886 6.451-23.327 0.010l-104.458-104.458c-6.451-6.451-6.451-16.876 0-23.327l151.562-151.572-56.474-56.474c-4.342-4.352-5.908-10.813-4.035-16.691 1.894-5.888 6.922-10.23 13.015-11.233z" />
<glyph unicode="&#xe90b;" glyph-name="support" d="M452.023 959.122c-53.394-6.29-79.287-13.312-119.369-32.037-44.763-21.065-89.381-61.586-114.542-104.302-5.559-9.509-16.53-34.816-19.602-45.641-6.144-20.626-7.022-33.353-6.729-89.819l0.293-54.272-5.413-3.072c-7.899-4.535-15.36-12.142-19.163-19.749-4.096-7.753-8.046-23.845-8.046-31.89 0-6.144 3.803-25.6 5.998-30.135 0.731-1.609 2.194-5.851 3.365-9.509 5.266-17.115 13.312-38.473 18.725-49.737 7.314-15.214 20.773-29.403 34.085-35.986 7.461-3.657 10.533-4.242 20.773-4.242 7.607 0 12.727 0.731 13.897 1.902 3.365 3.365 7.022 2.048 9.509-3.657 8.192-19.895 34.962-69.486 45.641-84.553 2.779-3.95 7.607-10.971 10.679-15.506 7.899-11.41 29.111-34.67 41.399-45.349 17.993-15.653 39.351-28.379 59.246-35.255 22.382-7.753 31.159-9.216 57.783-9.216 21.504 0 26.77 0.439 38.766 3.511 49.883 12.727 90.99 44.91 128.731 101.083 4.535 6.875 9.509 14.482 10.825 16.823 1.317 2.487 5.12 9.070 8.338 14.629 4.827 8.485 21.211 41.253 28.087 56.32 0.878 2.048 5.851 8.046 10.825 13.605 10.679 11.41 20.187 29.842 25.454 49.298 4.681 16.677 4.974 43.739 0.731 54.857-5.559 14.336-12.142 19.749-23.698 19.749-5.413 0-5.705 0.439-3.511 9.801 2.487 10.386 5.998 49.737 6.875 74.313 1.755 57.929-11.849 107.666-39.205 142.043-25.746 32.475-69.047 60.123-113.371 72.265-29.842 8.192-40.082 9.362-78.848 9.362-34.085 0-37.888-0.146-55.589-3.95-23.698-4.827-34.816-8.046-49.737-14.043-48.128-19.456-87.333-53.833-107.081-93.769-8.777-17.993-15.506-41.984-17.993-65.097-2.779-25.893-1.17-89.234 2.926-108.983 5.12-24.722 2.194-29.111-5.266-7.899-4.535 13.019-5.266 14.921-8.631 23.406-1.024 2.487-4.974 7.168-8.631 10.24l-6.729 5.559v45.641c0 49.445 1.317 61.586 9.655 84.553 21.65 60.27 74.167 112.494 138.533 137.801 37.449 14.775 73.289 20.48 119.515 19.017 36.864-1.17 64.366-6.437 94.939-18.432 44.471-17.408 81.92-45.934 111.177-84.407 8.631-11.557 26.478-43.301 26.478-47.104 0-1.024 0.878-3.95 2.048-6.437 1.17-2.633 3.657-9.947 5.413-16.384 3.218-11.118 3.511-14.775 4.242-73.874 0.878-69.632 0.585-68.023 11.41-71.534 7.168-2.341 14.775 0.585 18.432 7.461 2.341 4.535 2.487 9.655 1.902 73.582-0.585 62.903-0.878 69.632-3.511 78.994-16.969 59.685-55.003 108.837-111.762 144.238-13.019 8.046-33.499 18.432-45.934 23.259-4.827 1.755-10.094 3.803-11.703 4.535-10.825 4.389-39.058 11.264-60.709 14.629-17.554 2.779-69.193 4.827-81.92 3.365zM394.679 735.89c37.595-35.694 76.215-58.953 120.247-72.558 19.017-5.998 24.283-7.461 29.989-8.338 3.218-0.585 7.899-1.609 10.24-2.341 7.753-2.194 37.595-7.022 54.857-8.631 9.216-0.878 22.528-2.194 29.403-2.926 6.875-0.878 16.823-1.463 22.235-1.463h9.801v-9.070c0-11.849-6.875-60.709-10.24-72.85-2.341-8.338-7.314-30.281-7.314-32.037 0-4.242 2.779-0.878 4.242 5.266 2.487 9.362 12.142 29.257 17.554 35.694 2.487 2.926 6.144 5.851 8.338 6.29 5.559 1.463 12.873-3.803 16.823-11.703 2.926-5.998 3.072-8.338 2.341-22.235-0.585-11.557-1.755-18.286-4.389-25.454-5.413-14.629-13.019-27.355-21.358-35.401-5.998-5.851-8.923-10.825-16.53-27.794-9.801-21.943-27.063-56.466-34.816-69.632-15.945-27.209-41.106-56.027-59.246-68.023-18.286-11.995-39.205-20.187-58.222-22.674-21.211-2.779-62.757-1.17-71.973 2.779-1.609 0.731-5.851 2.048-9.509 3.072-8.192 2.194-24.137 10.094-34.962 17.262-16.238 10.679-38.766 36.133-54.418 61.294-8.923 14.19-14.775 25.307-13.458 25.307 0.585 0 4.827-2.341 9.216-5.12 21.943-14.043 58.807-29.257 86.309-35.694 6.875-1.609 15.36-3.95 18.871-5.12 9.070-3.218 40.814-3.218 50.761 0 13.019 4.389 22.528 16.969 22.528 29.989 0 9.509-6.437 21.358-14.336 26.917-6.29 4.389-6.437 4.389-29.989 4.827-15.214 0.439-25.6 0-29.257-1.17-5.998-1.755-18.578-12.288-18.578-15.36 0-1.024-0.878-2.633-2.048-3.511-2.633-2.194-19.163 3.218-41.106 13.605-29.989 14.336-51.785 29.55-74.167 52.37-11.41 11.557-12.873 13.458-12.873 18.432-0.146 2.926-1.17 8.046-2.341 11.264s-3.072 8.485-4.096 11.703c-1.17 3.218-4.827 13.458-8.192 22.674s-7.753 21.943-9.947 28.379l-3.803 11.41 4.827 4.389c5.705 5.12 10.094 4.681 16.677-1.463 4.827-4.535 14.336-22.674 17.262-32.475 1.902-6.729 3.657-9.801 4.827-8.631 0.439 0.439-0.878 7.899-2.779 16.677-10.24 45.495-12.727 63.342-13.458 95.086l-0.731 27.941 4.096 7.899c13.166 25.893 36.864 52.078 55.442 61.733 9.947 5.12 21.211 9.216 28.526 10.386 2.048 0.293 4.242 0.731 4.827 0.878 0.585 0 6.875-5.266 13.897-11.849zM315.977 254.903c-1.17-0.585-5.851-2.194-10.24-3.365-4.389-1.317-13.019-3.657-19.017-5.413-11.703-3.511-13.312-3.95-49.006-13.166s-37.303-9.655-49.006-13.166c-5.998-1.755-14.629-4.096-19.017-5.413-9.801-2.633-38.766-12.288-49.737-16.677-4.389-1.609-10.533-3.95-13.605-5.12-8.046-3.072-34.816-17.115-43.008-22.674-20.48-14.043-26.331-19.895-33.792-34.67-7.753-15.067-16.091-38.181-20.041-55.15-5.851-24.576-8.192-50.469-9.070-97.719l-0.878-46.373h960.512l-0.878 47.835c-1.024 59.831-3.365 78.848-14.482 116.736-3.511 11.995-6.437 19.017-14.482 35.109-7.168 14.19-7.899 15.067-21.797 25.6-16.091 12.288-27.941 18.871-60.709 33.792-4.242 1.902-31.159 11.557-38.766 13.751-3.657 1.024-11.118 3.365-16.823 4.974-13.458 4.096-28.087 8.046-67.291 18.432-50.615 13.312-66.121 17.554-75.922 20.919-4.535 1.463-8.485 2.487-8.777 2.194-0.293-0.439 0.146-3.072 0.878-5.998 0.878-3.072 1.17-16.238 0.731-32.475-0.585-21.211-1.317-29.111-3.657-36.718-7.314-24.137-37.303-82.066-58.514-113.079-4.535-6.583-9.947-14.629-12.288-17.847-8.338-12.288-33.061-39.643-46.519-51.493-7.607-6.729-19.749-16.238-26.917-21.065l-13.019-8.923-6.437 3.511c-11.703 6.29-31.598 22.235-46.519 37.157-30.72 30.72-59.392 72.265-83.237 120.393-18.725 37.595-20.773 42.862-24.43 59.392-3.072 14.336-3.803 49.298-1.317 60.123 1.463 6.437 0.439 8.485-2.926 6.583zM437.979 216.137c-4.827-4.389-11.995-11.557-15.799-15.945l-6.875-8.192 6.875-10.533c3.657-5.851 11.703-15.506 17.701-21.504 9.801-9.509 10.825-11.118 9.362-13.897-0.878-1.609-4.535-10.679-8.192-19.895s-7.753-18.871-8.777-21.504c-1.17-2.487-2.194-4.974-2.194-5.559 0-0.439-1.17-3.657-2.779-7.022-4.974-11.264-10.386-25.6-10.386-27.648 0-7.168 27.794-37.742 49.006-53.979 7.314-5.559 13.751-10.094 14.19-10.094 1.755 0 23.552 17.847 33.207 26.917 9.070 8.631 23.406 25.454 28.379 33.207 2.633 4.096 2.633 4.242-5.705 22.821-1.17 2.487-2.048 4.974-2.048 5.559 0 0.439-1.17 3.657-2.779 7.022-1.463 3.365-6.437 15.653-10.971 27.355-4.681 11.703-8.923 22.528-9.655 24.283-1.024 2.487 0.585 4.974 9.947 14.629 6.29 6.437 14.043 15.799 17.554 20.919l6.144 9.070-6.875 8.777c-3.803 4.974-10.971 12.142-15.945 16.091l-9.070 7.168h-32.622l-32.768-0.146-8.923-7.899z" />
<glyph unicode="&#xe90c;" glyph-name="calendar" d="M864-32h-704c-35.328 0-64 28.672-64 64v704c0 35.36 28.672 64 64 64h64v-32c0-53.024 42.976-96 96-96 52.992 0 96 42.976 96 96v32h192v-32c0-53.024 43.008-96 96-96s96 42.976 96 96v32h64c35.328 0 64-28.64 64-64v-704c0-35.328-28.672-64-64-64zM864 576h-704v-544h704v544zM320 416h-96v96h96v-96zM320 256h-96v96h96v-96zM320 96h-96v96h96v-96zM480 416h-96v96h96v-96zM480 256h-96v96h96v-96zM480 96h-96v96h96v-96zM640 416h-96v96h96v-96zM640 256h-96v96h96v-96zM640 96h-96v96h96v-96zM800 416h-96v96h96v-96zM800 256h-96v96h96v-96zM800 96h-96v96h96v-96zM703.008 704c-34.816 0-63.008 28.224-63.008 63.008v65.984c0 34.816 28.192 63.008 63.008 63.008s63.008-28.192 63.008-63.008v-65.984c0-34.784-28.192-63.008-63.008-63.008zM319.008 704c-34.816 0-63.008 28.224-63.008 63.008v65.984c0 34.816 28.192 63.008 63.008 63.008s63.008-28.192 63.008-63.008v-65.984c0-34.784-28.224-63.008-63.008-63.008z" />
<glyph unicode="&#xe90d;" glyph-name="exclamation-sign" d="M430.264 132.272c-8.87 0-16.058-7.188-16.058-16.058v-164.155c0-8.87 7.188-16.060 16.058-16.060h164.153c8.872 0 16.060 7.19 16.060 16.060v164.143c0 8.87-7.188 16.058-16.060 16.058l-164.153 0.012zM472.871 200.027h78.942c8.868 0 16.756 7.152 17.602 15.986l48.754 503.7v224.229c0 8.87-7.192 16.058-16.060 16.058h-180.225c-8.87 0-16.058-7.188-16.058-16.058v-224.229l49.426-503.712c0.864-8.822 8.752-15.974 17.62-15.974z" />
<glyph unicode="&#xe90e;" glyph-name="picture" d="M661.048 662.661l-131.226-197.512-95.373 96.124-95.419-154.312-71.543 70.831-77.466-155.017h608.222l-137.195 339.879zM11.128 907.128v-960h960v960h-960zM887.654 239.301h-793.045v584.346h793.045v-584.346zM282.057 570.253c34.599 0 62.609 28.010 62.609 62.609s-28.010 62.609-62.609 62.609c-34.56 0-62.609-28.010-62.609-62.609s28.049-62.609 62.609-62.609z" />
<glyph unicode="&#xe90f;" glyph-name="lightbulb-idea" d="M512.011 802.46c-171.745-0.044-311.464-135.165-311.464-301.18 0-107.757 43.726-171.854 75.927-219.088 19.804-29.064 31.024-46.362 31.024-63.77 0-39.064 20.937-75.883 58.149-103.487 0.937-23.159 4.357-79.718 4.357-79.718 0-0.022 0-0.044 0-0.065 0.61-16.057 9.063-48.977 64.402-67.365 6.514-9.586 15.076-18.105 25.447-25.033 6.492-4.379 14.161-6.754 22.005-6.754h60.306c7.843 0 15.49 2.309 22.005 6.754 10.392 6.95 18.976 15.447 25.447 25.033 55.839 18.584 63.966 51.874 64.423 67.474 0 0 3.399 56.471 4.336 79.652 37.212 27.626 58.171 64.423 58.171 103.487 0 17.408 11.198 34.728 31.199 64.010 31.961 46.842 75.774 111.004 75.774 218.892-0.022 166.059-139.762 301.159-311.507 301.159zM682.471 326.55c-23.007-33.726-44.706-65.578-44.706-108.128 0-18.693-16.907-33.748-29.499-42.441h-192.486c-12.593 8.671-29.499 23.748-29.499 42.441 0 42.55-21.721 74.402-44.99 108.52-29.042 42.593-61.983 90.894-61.983 174.316 0 122.594 104.402 222.378 232.726 222.421 128.346 0 232.726-99.762 232.726-222.378 0-83.596-33.007-131.832-62.288-174.752zM512.011 861.546c10.872 0 19.673 8.802 19.673 19.695v59.064c0 10.872-8.802 19.695-19.673 19.695s-19.695-8.824-19.695-19.695v-59.064c0-10.893 8.824-19.695 19.695-19.695zM302.793 819.889c3.66-6.318 10.262-9.848 17.081-9.848 3.333 0 6.732 0.85 9.826 2.636 9.434 5.447 12.658 17.473 7.211 26.907l-29.543 51.155c-5.447 9.434-17.473 12.658-26.907 7.211-9.412-5.447-12.636-17.473-7.211-26.907l29.543-51.155zM189.044 706.141l-51.155 29.521c-9.434 5.447-21.46 2.2-26.907-7.211-5.425-9.412-2.2-21.46 7.211-26.907l51.155-29.521c3.094-1.787 6.492-2.636 9.826-2.636 6.819 0 13.421 3.529 17.081 9.848 5.425 9.412 2.2 21.46-7.211 26.907zM147.388 496.922c0 10.872-8.824 19.695-19.695 19.695h-59.064c-10.872 0-19.695-8.824-19.695-19.695s8.824-19.695 19.695-19.695h59.064c10.872 0 19.695 8.824 19.695 19.695zM169.349 321.822l-51.177-29.499c-9.412-5.447-12.658-17.495-7.233-26.885 3.638-6.34 10.283-9.848 17.081-9.848 3.333 0 6.732 0.85 9.826 2.636l51.155 29.499c9.434 5.447 12.658 17.495 7.233 26.885-5.425 9.455-17.451 12.658-26.885 7.211zM905.85 292.279l-51.155 29.543c-9.455 5.447-21.46 2.244-26.907-7.19s-2.244-21.46 7.19-26.907l51.155-29.521c3.137-1.808 6.492-2.636 9.826-2.636 6.819 0 13.421 3.529 17.081 9.826 5.403 9.39 2.222 21.482-7.19 26.885zM955.393 516.596l-59.020 0.022c-10.893 0-19.695-8.824-19.695-19.673 0-10.893 8.802-19.695 19.652-19.695l59.064-0.022c10.85 0 19.673 8.824 19.673 19.673 0 10.872-8.78 19.695-19.673 19.695zM844.826 669.408c3.355 0 6.754 0.85 9.826 2.636l51.177 29.499c9.434 5.425 12.658 17.473 7.233 26.885-5.447 9.434-17.517 12.658-26.907 7.211l-51.155-29.499c-9.455-5.447-12.658-17.495-7.233-26.885 3.66-6.318 10.283-9.848 17.059-9.848zM694.323 812.721c3.094-1.808 6.471-2.658 9.826-2.658 6.797 0 13.399 3.529 17.059 9.848l29.499 51.134c5.447 9.412 2.244 21.46-7.19 26.885-9.434 5.468-21.46 2.244-26.907-7.211l-29.499-51.134c-5.425-9.39-2.179-21.438 7.211-26.863zM485.605 377.988c2.375-17.429 10.806-22.244 26.406-22.244 15.578 0 24.031 4.815 26.427 22.244l18.606 140.459c1.176 9.586 2.353 19.194 2.353 28.192v69.631c0 30.61-17.408 46.232-47.408 46.232-30.022 0-47.43-15.599-47.43-46.232v-69.631c0-8.998 1.198-18.606 2.397-28.192l18.649-140.459zM512.011 316.789c-27.037 0-49.238-22.223-49.238-49.238s22.223-49.216 49.238-49.216 49.216 22.201 49.216 49.216c0.022 27.016-22.201 49.238-49.216 49.238z" />
<glyph unicode="&#xe910;" glyph-name="opened-email-envelope" d="M512.064 943.134l-512.064-382.301v-607.968h1024v607.968l-511.936 382.301zM370.404 670.333c15.025 27.462 35.727 48.138 61.992 61.863 26.2 13.84 56.095 20.805 89.904 20.805 28.505 0 53.958-5.6 76.231-16.634 22.26-11.201 39.203-26.96 51.074-47.469 11.587-20.535 17.6-42.924 17.6-67.167 0-28.929-8.935-55.091-26.805-78.497-22.402-29.509-50.997-44.237-86.003-44.237-9.424 0-16.467 1.571-21.295 4.892-4.699 3.373-7.995 8.137-9.566 14.536-13.158-13.029-28.723-19.57-46.207-19.57-18.861 0-34.491 6.527-46.902 19.428-12.437 13.029-18.63 30.397-18.63 51.898 0 26.831 7.442 51.061 22.441 73.025 18.231 26.831 41.431 40.298 69.832 40.298 20.226 0 35.161-7.738 44.739-23.239l4.262 18.9h45.061l-25.724-122.039c-1.609-7.802-2.408-12.694-2.408-14.973 0-2.935 0.669-4.892 1.918-6.399 1.275-1.429 2.871-2.124 4.596-2.124 5.613 0 12.604 3.193 21.192 9.901 11.6 8.536 20.947 20.265 28.080 34.697 7.133 14.536 10.802 29.599 10.802 45.164 0 27.874-10.068 51.203-30.281 70.103-20.252 18.668-48.538 28.131-84.69 28.131-30.809 0-56.867-6.27-78.239-18.9-21.372-12.437-37.504-30.165-48.473-52.966-10.802-22.659-16.196-46.439-16.196-71.068 0-23.895 6.167-45.731 18.166-65.326 12.167-19.737 29.097-34.002 50.932-43.066 21.835-8.974 46.902-13.467 75.034-13.467 26.998 0 50.327 3.772 69.935 11.343 19.595 7.557 35.264 18.758 47.199 34.002h36.139c-11.33-23.071-28.672-41.096-52.13-54.267-26.934-14.973-59.738-22.402-98.414-22.402-37.568 0-69.858 6.27-97.101 18.9-27.307 12.694-47.495 31.337-60.897 56.005-13.235 24.694-19.763 51.602-19.763 80.698 0.026 31.891 7.467 61.657 22.595 89.221zM36.101 548.77l377.794-253.374-377.794-292.41v545.783zM64.798-16.467l447.266 346.136 447.125-346.136h-894.391zM987.861 2.987l-377.717 292.41 377.73 253.374v-545.783zM530.501 642.498c6-6.836 8.999-16.673 8.999-29.509 0-11.471-2.24-23.895-6.605-37.066-4.3-13.338-9.566-23.509-15.565-30.397-4.094-4.828-8.472-8.394-12.772-10.634-5.652-3.206-11.664-4.764-18.153-4.764-8.678-0.077-15.836 3.399-21.771 10.222-5.794 6.836-8.665 17.329-8.665 31.736 0 10.802 2.034 23.239 6.27 37.195 4.236 14.008 10.428 24.668 18.707 32.303 8.33 7.57 17.329 11.343 27.037 11.343 9.090-0.064 16.647-3.528 22.518-10.428z" />
<glyph unicode="&#xe911;" glyph-name="phone-chat" d="M688 171.18c0-16.058-12.625-28.634-28.742-28.634h-408.765c-15.674 0-27.948 12.576-27.948 28.634v629.044c0 16.189 12.276 28.867 27.948 28.867h408.765c15.849 0 28.742-12.948 28.742-28.867v-40.951h84.364v141.638c0 32.029-27.302 59.089-59.619 59.089h-515.735c-31.887 0-58.828-27.060-58.828-59.089v-905.827c0-32.029 26.941-59.084 58.828-59.084h515.735c32.317 0 59.619 27.057 59.619 59.084v243.462h-84.364v-67.366zM454.877-15.514c-33.204 0-60.122 26.918-60.122 60.122s26.918 60.122 60.122 60.122c33.204 0 60.122-26.918 60.122-60.122 0-33.207-26.918-60.122-60.122-60.122zM842.182 672h-381.815c-24.061 0-42.912-20.375-42.912-44.436v-259.689c0-24.061 18.851-44.966 42.912-44.966h90.359c8.020 0 15.092-5.196 15.092-13.216v-47.075c0-21.132 12.381-30.592 24.919-30.592 7.060 0 14.031 2.851 20.986 8.474l108.544 85.318h136.992c16.64 6.513 28.556 23.302 28.556 42.057v259.689c0.003 24.061-19.569 44.436-43.633 44.436z" />
<glyph unicode="&#xe912;" glyph-name="book" d="M480 132v628c0 0-86.016 72-208 72s-208-64-208-64v-636c0 0 86.016 62.016 208 62.016s208-62.016 208-62.016zM928 132v628c0 0-86.016 72-208 72s-208-64-208-64v-636c0 0 86.016 62.016 208 62.016s208-62.016 208-62.016zM992 704h-32v-608h-384v-32h-160v32h-384v608h-32v-640h384v-32h225.984l-1.984 32h384v640z" />
<glyph unicode="&#xe913;" glyph-name="book2" d="M548.032 87.683c0 0 222.964 74.297 396.346-65.289 0 2.233 0 65.289 0 65.289-202.677 112.6-396.346 0-396.346 0zM7.558 808.317v-716.127c0 0 96.852 69.828 234.205 69.828s234.205-69.828 234.205-69.828v707.119c0 0-96.852 81.072-234.205 81.072s-234.205-72.064-234.205-72.064zM79.622 736.253h144.125v-180.157h-144.125v180.157zM403.904 267.843h-324.285v36.032h324.285v-36.032zM403.904 339.904h-324.285v36.032h324.285v-36.032zM403.904 411.968h-324.285v36.032h324.285v-36.032zM403.904 484.032h-324.285v36.032h324.285v-36.032zM259.779 736.253h144.125v-36.032h-144.125v36.032zM259.779 664.189h144.125v-36.032h-144.125v36.032zM259.779 592.125h144.125v-36.032h-144.125v36.032zM746.205 880.378c-137.353 0-234.205-72.064-234.205-72.064v-716.127c0 0 96.852 69.828 234.205 69.828s234.205-69.828 234.205-69.828v707.119c0 0-96.852 81.072-234.205 81.072zM908.346 267.843h-324.285v36.032h324.285v-36.032zM908.346 339.904h-324.285v36.032h324.285v-36.032zM908.346 411.968h-324.285v36.032h324.285v-36.032zM908.346 484.032h-324.285v36.032h324.285v-36.032zM908.346 556.096h-324.285v36.032h324.285v-36.032zM908.346 628.157h-324.285v36.032h324.285v-36.032zM908.346 700.221h-324.285v36.032h324.285v-36.032zM43.59 87.683c0 0 0-63.056 0-65.289 173.385 139.586 396.346 65.289 396.346 65.289s-193.669 112.6-396.346 0z" />
<glyph unicode="&#xe914;" glyph-name="house" d="M1014.072 498.822l-483.158 451.631c-10.564 9.873-27.554 9.873-38.117 0l-151.198-140.799v63.207c0 15.182-11.165 27.492-26.347 27.492h-230.244c-15.182 0-28.636-12.309-28.636-27.492v-103.094c0-15.182 13.746-27.492 27.492-27.492v-173.542l-75.362-70.98c-8.244-7.708-10.657-19.677-6.512-30.176 4.141-10.502 14.571-17.402 25.859-17.402h28.526v-484.543c0-15.182 13.454-27.492 28.636-27.492h848.809c15.182 0 26.347 12.309 26.347 27.492v484.543h36.279c0.027 0.003 0.048 0.003 0.069 0 15.186 0 27.492 12.309 27.492 27.492-0.007 8.509-3.869 16.11-9.935 21.155zM926.772 505.159h-111.823l-284.035 265.509c-10.564 9.873-26.983 9.873-37.547 0l-284.035-265.509h-111.816l414.624 387.576 414.631-387.576zM197.267 302.407h113.404v-168.387h-113.404v168.387zM709.302 302.407h113.404v-168.387h-113.404v168.387zM420.638 272.623c0 48.080 40.121 88.204 88.2 88.204h1.148c48.080 0 85.912-40.124 85.912-88.204v-282.935h-175.26v282.935z" />
<glyph unicode="&#xe915;" glyph-name="bubbles" horiz-adv-x="1100" d="M804.224 538.72c0 165.28-180.064 299.264-402.112 299.264-222.080 0-402.112-133.984-402.112-299.264 0-99.328 65.024-187.328 165.12-241.76-0.288-0.864-79.744-145.44-79.744-145.44s242.624 92.544 243.296 92.928c23.808-3.296 48.352-4.96 73.44-4.96 222.048 0 402.112 133.984 402.112 299.232zM1100.32 445.216c0 165.248-169.504 298.048-352.992 299.232 263.040-262.016-46.752-541.184-299.232-541.184 0 0 28.064-57.28 250.112-57.28 25.056 0 49.632 1.728 73.44 4.992 0.672-0.448 243.328-92.928 243.328-92.928s-79.488 144.544-79.744 145.408c100.064 54.432 165.088 142.464 165.088 241.76z" />
<glyph unicode="&#xe916;" glyph-name="hourglass" d="M784 64c8.8 0 16-7.168 16-16s0-48 0-48h-608c0 0 0 39.168 0 48s7.168 16 16 16h53.44c2.656 213.056 141.824 281.728 141.824 367.84 0 86.56-141.728 92.32-143.072 368.16h-52.192c-8.832 0-16 7.168-16 16s0 48 0 48h608c0 0 0-39.168 0-48s-7.2-16-16-16h-48.96c-1.344-275.84-143.072-281.6-143.072-368.16 0-86.112 139.2-154.784 141.856-367.84h50.176zM547.552 431.84c0 86.912 141.76 92.32 143.072 368.16h-386.016c1.312-275.84 143.072-281.248 143.072-368.16 0-83.552-139.232-153.984-141.856-367.84h24.256c5.696 18.976 24.608 41.792 57.28 58.688l42.464 21.664c26.688 13.792 42.688 23.104 48 27.904s11.328 15.552 18.048 32.256c7.072-16.672 13.12-27.424 18.24-32.256s20.928-14.112 47.488-27.904l42.24-21.664c32.48-16.896 51.328-39.712 56.928-58.688h28.608c-2.624 213.856-141.824 284.288-141.824 367.84zM514.24 478.816c-3.84-7.552-7.072-21.92-9.632-43.104-0.64-6.4-2.048-16.032-4.32-28.864-2.24 12.832-3.68 22.464-4.32 28.864-2.592 21.184-5.824 35.52-9.696 43.104-3.872 7.52-14.784 21.056-32.8 40.672l-40.032 43.776c-27.36 29.504-44.896 50.688-52.608 63.488 47.488-30.24 93.856-45.376 139.104-45.376s91.776 15.136 139.584 45.376c-8-12.8-25.6-33.984-52.768-63.488l-39.872-43.776c-17.92-19.616-28.832-33.152-32.64-40.672z" />
<glyph unicode="&#xe917;" glyph-name="cone" d="M946.198-63.674h-868.434l0.588 74.644 100.838 86.932c0 0 181.55-59.872 332.374-59.872 148.618 0 335.724 59.872 335.724 59.872l98.948-85.87v-75.706zM204.088 128.192l63.026 199.944h488.95l63.026-199.944c0 0-190.412-56.762-306.060-56.762-112.854-0.038-308.936 56.762-308.936 56.762zM304.414 446.54l62.982 199.906h288.412l62.944-199.906h-414.344zM466.072 959.718h90.99l61.408-194.786h-213.768l61.37 194.786z" />
<glyph unicode="&#xe918;" glyph-name="settings" d="M1007.767 334.382h16.233v221.823h-145.088c-7.58 25.936-17.907 51.025-30.823 74.857l102.46 102.46-156.848 156.857-102.796-102.801c-22.598 12.108-46.292 21.922-70.697 29.281v143.138h-221.825v-143.145c-23.178-6.991-45.685-16.171-67.175-27.388l-100.908 100.915-156.85-156.851 98.965-98.966c-12.935-23.259-23.383-47.703-31.173-72.942h-141.243v-221.825h139.678c7.948-27.191 18.926-53.453 32.748-78.342l-98.975-98.975 156.85-156.855 100.902 100.908c23.091-12.081 47.422-21.776 72.59-28.922v-141.605h221.823v144.814c22.502 7.131 44.382 16.378 65.297 27.596l102.787-102.785 156.848 156.855-102.46 102.46c12.048 22.219 21.846 45.494 29.248 69.447l130.433-0.007zM739.233 447.996c0-126.791-103.148-229.939-229.939-229.939s-229.939 103.15-229.939 229.939 103.148 229.939 229.939 229.939 229.939-103.148 229.939-229.939z" />
<glyph unicode="&#xe919;" glyph-name="user" d="M919.969 306.764l-301.398 143.776c39.124 24.642 70.888 62.677 91.682 108.515 16.498 36.381 26.317 77.556 26.317 121.608 0 24.708-3.93 48.175-9.387 70.822-26.628 109.712-112.318 190.541-215.183 190.541-100.926 0-185.328-77.958-213.61-184.56-6.526-24.454-11.031-49.885-11.031-76.823 0-46.79 10.929-90.404 29.503-128.352 21.471-44.016 53.291-80.31 92.038-103.644l-304.482-141.801c-18.997-8.898-31.478-30.323-31.478-54.258v-240.294c0-32.211 22.433-58.33 50.15-58.33h777.836c27.707 0 50.15 26.108 50.15 58.33v240.304c-0.020 23.843-12.303 45.070-31.122 54.166z" />
<glyph unicode="&#xe91a;" glyph-name="key" d="M602.043 324.704l-161.156-161.156h-106.668v-106.668h-106.668v-106.668h-177.781v177.781l374.495 374.495c-12.24 32.849-18.93 68.403-18.93 105.517 0 166.916 135.312 302.228 302.228 302.228s302.228-135.312 302.228-302.228c0-166.916-135.312-302.228-302.228-302.228-37.114 0-72.668 6.69-105.517 18.93v0 0zM903.12 696.894c0 58.911-47.757 106.668-106.668 106.668s-106.668-47.757-106.668-106.668c0-58.911 47.757-106.668 106.668-106.668s106.668 47.757 106.668 106.668v0z" />
<glyph unicode="&#xe91b;" glyph-name="key2" d="M401.665 226.704l-55.324-55.324 92.208-92.208-110.648-110.648-92.208 92.208-69.171-69.171c-31.031-31.031-81.288-31.172-112.204-0.259l1.297-1.297c-30.867 30.867-30.796 81.149 0.259 112.204l448.401 448.401c-18.429 35.535-28.842 75.898-28.842 118.69 0 142.588 115.592 258.18 258.18 258.18s258.18-115.592 258.18-258.18c0-142.588-115.592-258.18-258.18-258.18-42.793 0-83.155 10.413-118.69 28.842v0l-102.606-102.606 73.764-73.764-110.648-110.648-73.764 73.764zM733.613 521.764c81.48 0 147.532 66.052 147.532 147.532s-66.052 147.532-147.532 147.532c-81.48 0-147.532-66.052-147.532-147.532s66.052-147.532 147.532-147.532v0z" />
<glyph unicode="&#xe91c;" glyph-name="locked1" d="M512 237.695v0c-20.716 7.321-35.555 27.078-35.555 50.3 0 29.456 23.878 53.334 53.334 53.334s53.334-23.878 53.334-53.334c0-23.222-14.842-42.978-35.555-50.3v-92.244c0-9.356-7.958-17.458-17.779-17.458-9.532 0-17.779 7.818-17.779 17.458v92.244zM263.106 519.113v0 0c-58.94-0.168-106.668-47.63-106.668-107.007v-177.445c0-157.099 127.51-284.452 284.42-284.452h177.844c157.080 0 284.42 127.674 284.42 284.452v177.445c0 58.994-47.677 106.837-106.668 107.007v124.475c0 147.265-119.694 266.646-266.673 266.646-147.278 0-266.673-119.352-266.673-266.646v-124.475zM369.774 519.113v124.417c0 88.593 71.635 160.035 160.005 160.035 88.187 0 160.005-71.65 160.005-160.035v-124.417h-320.007z" />
<glyph unicode="&#xe91d;" glyph-name="locked2" d="M114.756-48.556v529.659h99.311v165.519c0 146.252 118.544 264.83 264.83 264.83h33.104c146.252 0 264.83-118.577 264.83-264.83v-165.519h99.311v-529.659h-761.385zM470.422 223.325l-24.629-172.57h99.311l-24.662 172.57c24.133 9.865 41.214 33.534 41.214 61.242 0 36.546-29.661 66.207-66.207 66.207-36.58 0-66.207-29.661-66.207-66.207 0-27.708 17.048-51.377 41.181-61.242zM677.519 630.070c0 100.569-81.534 182.070-182.070 182.070-100.569 0-182.070-81.501-182.070-182.070v-148.967h364.141v148.967z" />
<glyph unicode="&#xe91e;" glyph-name="switchonoff" d="M512-49.988c-236.104 0-427.476 191.406-427.476 427.476 0 181.762 113.64 336.646 273.584 398.442v-152.146c-82.042-51.4-136.792-142.332-136.792-246.294 0-160.526 130.158-290.684 290.684-290.684s290.684 130.158 290.684 290.684c0 88.778-39.874 168.084-102.594 221.432v161.962c141.682-69.628 239.386-214.9 239.386-383.428 0-236.068-191.406-427.442-427.476-427.442zM529.1 428.784c-37.754 0-68.396 30.642-68.396 68.396v380.418c0 37.754 30.642 68.396 68.396 68.396s68.396-30.642 68.396-68.396v-380.452c0-37.754-30.642-68.362-68.396-68.362z" />
<glyph unicode="&#xe91f;" glyph-name="search" d="M398.048 960c-219.783 0-397.989-178.206-397.989-397.991s178.206-397.991 397.991-397.991c84.516 0 162.895 26.361 227.323 71.264l0.047 0.047 295.168-295.17c5.477-5.477 14.187-5.618 19.806 0l79.552 79.552c5.477 5.477 5.196 14.56-0.047 19.805l-295.124 295.123c44.903 64.475 71.264 142.856 71.264 227.37 0 219.785-178.206 397.991-397.991 397.991zM398.048 257.663c-168.093 0-304.346 136.253-304.346 304.346s136.255 304.346 304.346 304.346 304.346-136.253 304.346-304.346-136.253-304.346-304.346-304.346z" />
<glyph unicode="&#xe920;" glyph-name="basicdocument" d="M141.638 960c0 0-23.878 0-23.878-22.761v-978.432c0-22.807 23.878-22.807 23.878-22.807h740.723c0 0 23.879 0 23.879 22.761v768.512h-197.119c0 0-49.293 0-49.293 46.545v186.182h-518.191zM265.635 820.364h295.703v-46.545h-295.703v46.545zM265.635 680.727h295.703v-46.545h-295.703v46.545zM758.457 75.636h-492.822v46.545h492.822v-46.545zM758.457 215.273h-492.822v46.545h492.822v-46.545zM758.457 354.909h-492.822v46.545h492.822v-46.545zM758.457 541.091v-46.545h-492.822v46.545h492.822zM709.167 773.818h177.571l-177.571 169.1z" />
<glyph unicode="&#xe921;" glyph-name="certdocument" d="M562.196 99.973v-163.973l50.197 50.197 50.197-50.197v163.973c-16.731-6.693-33.464-10.038-50.197-10.038s-33.466 3.346-50.197 10.038zM696.051 207.060c0-46.204-37.456-83.659-83.659-83.659s-83.659 37.456-83.659 83.659c0 46.204 37.456 83.659 83.659 83.659s83.659-37.456 83.659-83.659zM662.588 725.752h167.32l-200.784 234.248v-200.784c0-20.078 16.731-33.464 33.464-33.464zM595.66 759.216v200.784h-334.641c-36.811 0-66.928-30.117-66.928-66.928v-769.673c0-36.81 30.117-66.928 66.928-66.928h267.712v70.274c-20.078 20.080-33.464 50.197-33.464 80.314 0 63.583 53.542 117.125 117.125 117.125s117.125-53.542 117.125-117.125c0-33.464-13.386-60.235-33.464-80.314v-70.274h66.928c36.81 0 66.928 30.119 66.928 66.928v568.889h-167.32c-36.811 0-66.93 30.117-66.93 66.928zM294.484 826.144h234.248v-33.464h-234.248v33.464zM294.484 725.752h234.248v-33.464h-234.248v33.464zM729.516 391.111h-435.033v33.464h435.033v-33.464zM729.516 491.503h-435.033v33.464h435.033v-33.464zM729.516 591.895h-435.033v33.464h435.033v-33.464z" />
<glyph unicode="&#xe922;" glyph-name="eservices1" d="M1005.794 407.492c-1.525 5.302-4.708 9.979-9.079 13.353-37.13 28.623-75.254 44.363-113.038 47.913 0 0-5.033 0.81-17.156 0.81-12.129 0-18.309-0.789-18.309-0.789-36.433-4.297-72.917-20.34-108.717-47.934-4.373-3.368-7.555-8.053-9.079-13.353-17.573-60.91-22.26-119.34-14.764-183.884 6.629-57.056 22.348-114.325 40.688-177.899 1.527-5.305 4.711-9.984 9.079-13.353 28.114-21.675 64.579-33.603 102.679-33.603s74.573 11.928 102.687 33.598c4.371 3.368 7.555 8.056 9.085 13.355 18.341 63.582 34.059 120.843 40.688 177.896 7.497 64.55 2.809 122.985-14.764 183.89zM890.791 301.719c0-12.532-10.163-22.69-22.693-22.69s-22.685 10.158-22.685 22.69v94.631c0 12.53 10.156 22.693 22.685 22.693s22.693-10.163 22.693-22.693v-94.631zM695.445 59.566h-40.912l-33.764 114.8h68.915c-2.152 12.305-3.994 24.603-5.431 36.95-4.347 37.444-4.872 73.015-1.519 108.129h-603.599v506.404h817.721v-325.076c26.642-2.672 53.102-10.451 79.134-23.2v387.842c0 21.852-17.718 39.567-39.567 39.567h-896.855c-21.852 0-39.567-17.716-39.567-39.567v-651.483c0-21.854 17.716-39.567 39.567-39.567h315.651l-33.761-114.8h-40.907c-10.388 0-18.81-8.42-18.81-18.808v-30.931c0-10.388 8.423-18.81 18.81-18.81h414.896c10.388 0 18.808 8.42 18.808 18.81v30.931c-0.005 10.388-8.423 18.808-18.808 18.808z" />
<glyph unicode="&#xe923;" glyph-name="eservices2" d="M982.486 927.462h-940.973c-22.927 0-41.514-18.587-41.514-41.514v-683.531c0-22.929 18.587-41.514 41.514-41.514h331.178l-35.422-120.447h-42.919c-10.899 0-19.736-8.834-19.736-19.733v-32.452c0-10.899 8.837-19.736 19.736-19.736h435.302c10.899 0 19.736 8.834 19.736 19.736v32.452c0 10.899-8.831 19.733-19.736 19.733h-42.925l-35.422 120.447h331.181c22.927 0 41.514 18.584 41.514 41.514v683.531c0 22.927-18.587 41.514-41.514 41.514zM940.973 313.123h-857.946v531.312h857.946v-531.312zM462.438 500.216c2.314-6.094 8.286-10.008 14.795-9.695 6.515 0.313 12.080 4.782 13.794 11.070l8.66 31.752 74.074-74.068c5.876-5.878 15.402-5.878 21.277 0l18.623 18.62c5.876 5.878 5.876 15.404 0 21.283l-74.068 74.068 31.75 8.66c6.285 1.713 10.766 7.281 11.070 13.794 0.316 6.515-3.603 12.484-9.692 14.798l-146.396 55.526c-5.535 2.101-11.79 0.756-15.977-3.429s-5.53-10.439-3.432-15.977l55.523-146.402z" />
<glyph unicode="&#xe924;" glyph-name="euro1" d="M512 960c-282.317 0-512-229.683-512-512s229.683-512 512-512c282.317 0 512 229.683 512 512s-229.683 512-512 512zM512 11.878c-240.435 0-436.122 195.618-436.122 436.122s195.686 436.122 436.122 436.122 436.122-195.618 436.122-436.122-195.686-436.122-436.122-436.122zM512 840.533c-216.405 0-392.533-176.094-392.533-392.533s176.128-392.533 392.533-392.533 392.533 176.094 392.533 392.533-176.128 392.533-392.533 392.533zM653.483 595.558c-25.737 20.241-54.955 30.379-87.654 30.379-25.293 0-47.616-8.158-66.799-24.508-19.217-16.35-32.87-38.093-40.926-65.263h147.081v-64.546h-157.389c-0.922-13.551-1.399-23.006-1.399-28.297 0-6.281 0.239-13.005 0.683-20.412h158.037v-65.604h-147.729c17.271-57.993 51.678-86.972 103.219-86.972 32.427 0 63.351 10.377 92.843 31.095v-84.924c-27.136-16.521-62.532-24.849-106.325-24.849-51.746 0-93.969 14.336-126.635 42.974s-54.306 69.564-64.887 122.709h-42.189v65.638h33.143c-0.478 5.734-0.717 12.527-0.717 20.378 0 4.096 0.478 13.517 1.399 28.297h-33.826v64.546h43.861c12.629 53.18 36.591 94.481 71.782 123.904 35.226 29.457 79.053 44.203 131.516 44.203 38.434 0 69.359-6.349 92.843-19.012v-89.737h0.068z" />
<glyph unicode="&#xe925;" glyph-name="euro2" d="M512 960c-282.759 0-512-229.241-512-512s229.241-512 512-512 512 229.241 512 512-229.241 512-512 512zM690.673 188.629c-15.381-6.953-31.394-12.853-47.829-17.277-62.367-17.277-124.734-17.909-186.891 2.318-75.009 24.23-124.734 75.43-154.443 147.068-5.689 13.906-9.481 28.444-13.906 42.983h-58.785c-9.903 0-17.699 8.007-17.699 17.699v39.612c0 9.903 8.007 17.699 17.699 17.699h48.672c0 10.956 0 21.281 0 32.237h-48.672c-9.903 0-17.699 8.007-17.699 17.699v39.612c0 9.903 8.007 17.699 17.699 17.699h61.946l2.107 6.11c16.645 52.886 45.3 98.186 89.337 132.319 34.976 27.18 75.43 42.14 118.835 49.093 61.735 9.903 121.574 1.475 179.516-21.281 3.793-1.475 7.374-3.16 10.956-5.267 13.906-8.217 17.488-18.542 11.378-33.501-6.532-15.592-13.063-31.394-20.227-46.775-6.11-13.274-14.538-17.488-28.866-14.328-19.595 4.425-38.769 10.535-58.364 14.538-41.297 8.428-82.384 8.849-122.627-6.953-34.555-13.695-55.625-40.033-69.952-72.902-0.211-0.421-0.211-0.843-0.211-1.264h120.309c9.903 0 17.699-8.007 17.699-17.699v-39.612c0-9.903-8.007-17.699-17.699-17.699h-137.376c-0.211-10.535 0-21.070 0-32.237h137.587c9.903 0 17.699-8.007 17.699-17.699v-39.612c0-9.903-8.007-17.699-17.699-17.699h-125.577c15.17-43.404 39.822-76.905 86.176-91.444 37.083-11.588 74.377-10.956 111.881-3.16 19.384 4.003 38.347 9.903 57.732 14.328 15.17 3.371 23.388-0.632 29.709-14.538 7.164-15.592 13.906-31.394 20.227-47.407 5.9-14.328 2.107-25.916-12.642-32.658z" />
<glyph unicode="&#xe926;" glyph-name="print" d="M180.148 613.926v199.197c0 36.555 29.677 66.284 66.285 66.284h497.949c36.719 0 66.285-29.676 66.285-66.284v-199.197h-630.519zM146.963 82.963h-33.375c-54.879 0-99.366 44.564-99.366 99.537v298.705c0 54.924 44.488 99.537 99.366 99.537h763.639c54.879 0 99.366-44.564 99.366-99.537v-298.705c0-54.924-44.488-99.537-99.366-99.537h-33.375v265.481h-696.889v-265.481zM180.148 315.259v-265.494c0-36.648 29.566-66.358 66.285-66.358h497.949c36.608 0 66.285 29.45 66.285 66.358v265.494h-630.519zM777.481 414.815c18.328 0 33.185 14.858 33.185 33.185s-14.858 33.185-33.185 33.185c-18.328 0-33.185-14.858-33.185-33.185s14.858-33.185 33.185-33.185v0z" />
<glyph unicode="&#xe927;" glyph-name="cashier1" d="M955.958 207.637c-1.64 64.777-16.664 126.166-42.379 181.641l25.399 8.383 11.294-34.563c4.31-13.186 18.492-20.383 31.665-16.071 13.173 4.323 20.383 18.492 16.071 31.678l-22.827 69.759c-4.31 13.177-18.479 20.381-31.678 16.071-13.173-4.31-20.345-18.492-16.035-31.678l7.488-22.93-27.088-8.961c-19.3 38.724-43.829 74.346-72.77 105.902l28.941 25.74 23.926-27.884c9.025-10.518 24.883-11.723 35.41-2.698 10.526 9.032 11.736 24.889 2.698 35.41l-47.811 55.695c-9.038 10.507-24.883 11.729-35.41 2.7-10.526-9.038-11.71-24.889-2.7-35.41l15.48-18.020-29.421-26.163c-31.776 32.774-68.332 60.871-108.619 83.075l14.598 25.231 30.705-17.27c12.088-6.788 27.378-2.502 34.185 9.58 6.782 12.094 2.495 27.391-9.58 34.192l-63.959 35.975c-12.102 6.79-27.406 2.516-34.211-9.58-6.784-12.081-2.497-27.391 9.58-34.177l22.034-12.392-14.775-25.519c-50.344 25.922-106.086 42.895-165.129 48.661v2.231h-193.618v163.489c0 35.653-28.884 64.539-64.539 64.539h-225.342c-31.776 0-57.542-25.76-57.542-57.544 0-31.778 25.766-57.544 57.542-57.544h23.132v-508.785c0-21.693 10.791-40.777 27.195-52.475h-8.477c-40.619 0-73.577-32.949-73.577-73.577v-49.047c0-40.639 32.957-73.577 73.577-73.577h851.032c40.626 0 73.577 32.938 73.577 73.577v49.047c0 38.762-30.012 70.45-68.042 73.287zM140.913 290.516c0-7.123-5.779-12.909-12.906-12.909-7.136 0-12.909 5.786-12.909 12.909v430.267c0 7.129 5.773 12.909 12.909 12.909 7.127 0 12.906-5.779 12.906-12.909v-430.267zM814.524 396.388c-1.953-1.071-4.058-1.574-6.15-1.574-4.587 0-9.002 2.444-11.358 6.73-76.551 140.832-237.494 167.421-239.108 167.669-7.033 1.096-11.849 7.688-10.765 14.743 1.085 7.033 7.688 11.836 14.698 10.778 7.123-1.083 175.090-28.538 257.867-180.861 3.416-6.255 1.098-14.071-5.182-17.485z" />
<glyph unicode="&#xe928;" glyph-name="cashier2" d="M1010.376 125.908l-108.618 192.864v226.997c0 49.255-40.086 89.324-89.343 89.324h-74.384v102.85h50.168c33.623 0 60.953 27.347 60.953 60.97v68.572c0 33.625-27.328 60.972-60.953 60.972h-204.25c-33.623 0-60.955-27.345-60.955-60.972v-68.572c0-33.623 27.332-60.97 60.955-60.97h50.168v-102.85h-422.529c-49.257 0-89.343-40.069-89.343-89.324v-226.997l-108.618-192.864c-18.467-32.731-18.131-73.256 0.816-105.729 18.975-32.475 54.121-52.638 91.733-52.638h811.651c37.61 0 72.758 20.162 91.733 52.638 18.945 32.473 19.281 72.997 0.816 105.729zM592.595 792.626c-4.843 0-8.823 3.962-8.823 8.834v67.225c0 4.872 3.98 8.834 8.823 8.834h200.236c4.872 0 8.825-3.962 8.825-8.834v-67.225c0-4.872-3.951-8.834-8.825-8.834 0 0-200.236 0-200.236 0zM802.284 402.117h-560.443v136.865h560.443v-136.865z" />
<glyph unicode="&#xe929;" glyph-name="euro3" d="M699.384 772.616c-40.079 0-78.479-7.344-113.941-20.564 85.613-73.443 139.961-182.557 139.961-304.052 0-121.705-54.348-230.61-139.961-304.052 35.462-13.22 73.862-20.564 113.941-20.564 179.41 0 324.616 145.416 324.616 324.616s-145.416 324.616-324.616 324.616zM324.616 772.616c-179.2 0-324.616-145.207-324.616-324.616s145.416-324.616 324.616-324.616c179.41 0 324.616 145.416 324.616 324.616 0.21 179.41-145.207 324.616-324.616 324.616zM437.928 283.489c-9.652-4.407-19.934-8.184-30.216-10.911-39.659-10.911-79.108-11.331-118.557 1.469-47.423 15.318-79.108 47.843-97.993 93.167-3.567 8.813-6.085 18.046-8.813 27.279h-37.141c-6.295 0-11.331 5.036-11.331 11.331v25.18c0 6.295 5.036 11.331 11.331 11.331h30.846c0 6.925 0 13.639 0 20.354h-30.846c-6.295 0-11.331 5.036-11.331 11.331v25.18c0 6.295 5.036 11.331 11.331 11.331h39.239l1.259 3.987c10.492 33.574 28.748 62.111 56.656 83.934 22.243 17.207 47.843 26.649 75.331 31.056 39.239 6.295 77.010 0.839 113.731-13.43 2.308-0.839 4.616-2.098 6.925-3.357 8.813-5.246 11.121-11.751 7.134-21.193-4.197-9.862-8.184-19.934-12.8-29.587-3.777-8.393-9.233-11.121-18.256-9.023-12.38 2.728-24.551 6.715-37.141 9.233-26.23 5.246-52.249 5.666-77.849-4.407-21.823-8.603-35.252-25.39-44.485-46.164 0-0.21-0.21-0.42-0.21-0.839h76.17c6.295 0 11.331-5.036 11.331-11.331v-25.18c0-6.295-5.036-11.331-11.331-11.331h-87.292c0-6.715 0-13.43 0-20.354h87.292c6.295 0 11.331-5.036 11.331-11.331v-25.18c0-6.295-5.036-11.331-11.331-11.331h-79.738c9.652-27.489 25.18-48.682 54.557-57.915 23.502-7.344 47.213-6.925 70.925-2.098 12.38 2.518 24.341 6.295 36.721 9.023 9.652 2.098 14.898-0.42 18.885-9.233 4.616-9.862 8.813-19.934 12.8-30.007 4.826-9.443 2.308-16.787-7.134-20.984z" />
<glyph unicode="&#xe92a;" glyph-name="alarm" d="M864.416 151.104v-58.4h-704.832v58.4c0 0-15.072 32.288 66.72 109.728 81.728 77.408 70.976 277.504 70.976 413.024s190.336 138.4 190.336 138.4h6.528c0-0.064 0 0.928 0 22.016 0 13.536-45.44 62.56-45.44 62.56l-0.672 29.664h128.32l-0.864-30.784c0 0-49.248-48.992-49.248-63.424 0-13.952 0-18.624 0-20h10.144c0 0 190.336-2.88 190.336-138.4s-10.752-335.648 71.008-413.088 66.688-109.696 66.688-109.696zM592.384 61.76c0-44.32-35.904-92.256-80.192-92.256s-80.192 47.936-80.192 92.256c0-0.992 160.384 1.024 160.384 0z" />
<glyph unicode="&#xe92b;" glyph-name="mouse" d="M734.592-31.104h-159.488c-105.728 0-191.392 85.696-191.392 191.392v287.104h193.408v-63.808c0-35.232 26.56-63.776 61.824-63.776h31.872c35.264 0 63.808 28.576 63.808 63.776v63.808h193.376v-287.104c0-105.696-87.712-191.392-193.408-191.392zM734.592 511.2c0 35.232-28.576 63.808-63.808 63.808v0 189.408c0 0-41.856 1.984 61.824 1.984s195.392-67.776 195.392-191.392c0-63.456 0-86.336 0-93.696h-193.408v29.888zM641.216 788c0 61.664-29.024 96-87.136 96-61.472 0-108.512-44.288-141.088-132.832l-6.688-18.144c-38.112-103.52-93.984-155.296-167.52-155.296-29.696 0-57.408 11.328-83.168 33.92-25.76 22.624-38.624 46.912-38.624 72.928 0 12.864 6.016 19.328 18.112 19.328 8.16 0 16.576-10.272 25.248-30.784 15.744-37.888 42.048-56.832 78.848-56.832 27.872 0 50.656 8.992 68.416 27.040 17.76 18.016 37.952 52.672 60.544 103.968l14.592 32.352c42.848 95.744 100.576 143.616 173.088 143.616 83.104 0 124.64-47.424 124.64-135.264h-39.264zM702.688 495.264v-95.68c0-26.432-21.408-47.84-47.84-47.84s-47.84 21.408-47.84 47.84v95.68c0 26.432 21.408 47.872 47.84 47.872s47.84-21.44 47.84-47.872zM577.088 766.4c103.648 0 63.776-1.984 63.776-1.984v-189.408c-35.232 0-63.776-28.576-63.776-63.808v-29.92h-193.408c0 7.36 0 30.24 0 93.696 0 123.648 89.728 191.424 193.408 191.424z" />
<glyph unicode="&#xe92c;" glyph-name="chat" d="M812.87 359.090v415.501c0 41.061-33.275 74.402-74.402 74.402h-651.219c-41.094 0.033-74.402-33.308-74.402-74.402v-415.501c0-41.094 33.308-74.402 74.402-74.402h124.081v-170.932l189.799 170.932h337.306c41.161 0 74.435 33.308 74.435 74.402zM936.752 685.648h-93.103c0 0 0-331.815 0-362.994s-40.462-71.274-71.64-71.274-364.192-1.83-364.192-1.83c0-41.094 33.308-66.084 74.402-66.084h143.381l187.070-169.768-0.233 169.768h124.314c41.128 0 74.402 24.989 74.402 66.084v363.759c0 41.061-33.275 72.339-74.402 72.339z" />
<glyph unicode="&#xe92d;" glyph-name="bubble1" d="M910.14 897.53h-796.28c-50.248 0-90.98-40.77-90.98-90.98v-508.126c0-50.21 40.732-90.98 90.98-90.98h151.728l0.038-209.018 232.088 209.018h412.464c50.292 0 90.98 40.77 90.98 90.98v508.126c-0.038 50.21-40.732 90.98-91.024 90.98zM267.866 530.638c-22.502 0-40.688 18.23-40.688 40.688 0 22.502 18.186 40.688 40.688 40.688 22.458 0 40.688-18.186 40.688-40.688 0-22.458-18.23-40.688-40.688-40.688zM430.624 532.348c-22.502 0-40.688 18.23-40.688 40.688 0 22.502 18.186 40.688 40.688 40.688 22.458 0 40.688-18.186 40.688-40.688 0-22.458-18.23-40.688-40.688-40.688zM594.19 531.496c-22.458 0-40.688 18.186-40.688 40.688 0 22.458 18.23 40.688 40.688 40.688 22.502 0 40.688-18.23 40.688-40.688s-18.23-40.688-40.688-40.688zM756.134 530.638c-22.502 0-40.688 18.23-40.688 40.688 0 22.502 18.186 40.688 40.688 40.688 22.458 0 40.688-18.186 40.688-40.688 0-22.458-18.23-40.688-40.688-40.688z" />
<glyph unicode="&#xe92e;" glyph-name="bubble2" d="M512 871.232c-273.803 0-495.795-165.214-495.795-369.014 0-122.478 80.179-230.988 203.605-298.11-0.353-1.064-98.329-179.34-98.329-179.34s299.216 114.114 300.043 114.588c29.358-4.066 59.622-6.115 90.518-6.115 273.803 0 495.795 165.214 495.795 368.977-0.037 203.805-222.034 369.014-495.837 369.014zM273.986 462.795c-21.779 0-39.46 17.676-39.46 39.46 0 21.821 17.676 39.46 39.46 39.46s39.46-17.639 39.46-39.46c0-21.779-17.639-39.46-39.46-39.46zM430.994 461.141c-21.779 0-39.46 17.676-39.46 39.46 0 21.821 17.676 39.46 39.46 39.46 21.821 0 39.46-17.639 39.46-39.46 0-21.779-17.639-39.46-39.46-39.46zM590.446 461.141c-21.779 0-39.46 17.676-39.46 39.46 0 21.821 17.676 39.46 39.46 39.46 21.821 0 39.46-17.639 39.46-39.46 0-21.779-17.639-39.46-39.46-39.46zM748.276 461.141c-21.779 0-39.46 17.676-39.46 39.46 0 21.821 17.676 39.46 39.46 39.46 21.821 0 39.46-17.639 39.46-39.46 0-21.779-17.639-39.46-39.46-39.46z" />
<glyph unicode="&#xe92f;" glyph-name="printfax" d="M256 160v-192h512v320h-512v-128zM320 224h384v-64h-384v64zM320 96h384v-64h-384v64zM768 736v192h-512v-320h512zM896 736h-64v-192h-640v192h-64c-64 0-128-64-128-128v-320c0-64 64-128 128-128h64v192h640v-192h64c64 0 128 64 128 128v320c0 64-64 128-128 128z" />
<glyph unicode="&#xe930;" glyph-name="mobile" d="M751.962 928h-480c-44.16 0-79.958-35.842-79.958-80.002v-800.002c0-44.16 35.798-80.002 79.958-80.002h480c44.198 0 80.040 35.842 80.040 80.002v800.002c0 44.16-35.842 80.002-80.040 80.002zM392 888.002h200.002l2.482-39.998h-202.478v39.998zM511.16 28c-22.080 0-39.998 17.88-39.998 39.998s17.918 39.998 39.998 39.998c22.118 0 39.998-17.88 39.998-39.998s-17.918-39.998-39.998-39.998zM751.962 168.002h-480l0.84 639.998h479.16v-639.998z" />
<glyph unicode="&#xe931;" glyph-name="phone2" d="M489.086 319.216c-0.89 0.616-103.918 173.824-104.26 176.050-21.304 46.548-38.498 94.156-2.672 115.29l-148.684 250.718c-38.532-28.806-147.52-185.126 56.48-539.386 214.892-373.336 419.404-357.82 460.402-332.544l-144.882 244.724c-34.252-20.14-63.090 13.050-116.386 85.148zM849.784 84.356l0.034 0.206c0 0-113.132 190.642-113.2 190.71-8.974 15.104-28.258 19.866-43.294 11.098l-69.324-40.998 145.294-245.444c0 0 69.324 40.794 69.29 40.93h0.138c15.926 9.454 19.592 28.976 11.064 43.498zM470.42 662.548v0.138c15.926 9.42 19.66 28.942 11.132 43.328l0.068 0.206c0 0-116.386 196.224-116.454 196.258-8.94 15.174-28.292 19.866-43.26 11.098l-69.324-40.998 148.512-250.854c0 0 69.29 40.724 69.324 40.828z" />
<glyph unicode="&#xe932;" glyph-name="aed24" horiz-adv-x="1096" d="M182.353 947.305c-62.426-18.728-122.355-76.16-154.817-146.077-56.184-122.355-24.97-257.196 87.397-385.794 47.444-53.687 354.581-317.125 370.812-317.125s323.368 263.439 370.812 317.125c72.414 82.403 108.622 161.060 113.616 250.953 3.746 62.426-1.249 86.148-31.213 143.58-77.409 152.32-249.705 194.77-395.782 98.633l-58.681-38.704-46.195 31.213c-83.651 57.432-167.302 72.414-255.948 46.195zM598.111 718.825c0-2.497-13.734-39.953-31.213-83.651s-31.213-81.154-31.213-82.403c0-2.497 16.231-4.994 36.207-7.491l36.207-3.746-66.172-111.119c-87.397-144.829-94.888-151.071-67.42-49.941 12.485 47.444 23.722 89.894 23.722 94.888 0 6.243-17.479 9.988-38.704 9.988-26.219 0-37.456 4.994-33.71 16.231 4.994 12.485 46.195 138.586 66.172 206.007 4.994 12.485 106.125 23.722 106.125 11.237zM635.567 139.51c-21.225-7.491-49.941-39.953-49.941-56.184 0-17.479 37.456-9.988 44.947 8.74 9.988 23.722 41.201 23.722 49.941 0 4.994-9.988-13.734-42.45-42.45-77.409-28.716-32.462-48.692-63.675-44.947-68.669s37.456-9.988 74.911-9.988c51.19 0 67.42 4.994 67.42 18.728s-13.734 18.728-44.947 18.728h-44.947l38.704 43.698c43.698 51.19 49.941 98.633 14.982 118.61-26.219 13.734-34.959 13.734-63.675 3.746zM792.881 74.586c-24.97-39.953-44.947-77.409-44.947-81.154s19.976-7.491 43.698-7.491c34.959 0 43.698-4.994 43.698-24.97 0-36.207 28.716-29.965 47.444 8.74 9.988 22.473 11.237 37.456 2.497 46.195-6.243 6.243-12.485 39.953-12.485 72.414 0 82.403-22.473 77.409-79.906-13.734zM835.331 42.125c0-19.976-7.491-31.213-18.728-31.213-22.473 0-23.722 4.994-3.746 37.456s22.473 31.213 22.473-6.243zM931.467 140.758c-4.994-4.994-8.74-53.687-8.74-107.373 0-88.645 2.497-97.385 24.97-97.385 19.976 0 24.97 8.74 24.97 43.698 0 39.953 2.497 43.698 37.456 43.698s37.456-3.746 37.456-43.698c0-36.207 4.994-43.698 24.97-43.698 24.97 0 26.219 6.243 22.473 102.379-2.497 82.403-7.491 103.628-22.473 103.628-12.485 0-19.976-14.982-22.473-39.953-3.746-36.207-8.74-41.201-39.953-41.201s-36.207 4.994-39.953 39.953c-3.746 38.704-21.225 56.184-38.704 39.953z" />
<glyph unicode="&#xe933;" glyph-name="aed" horiz-adv-x="1158" d="M267.352 954.412c-122.952-18.559-214.586-100.913-250.543-221.545-46.397-157.749 3.48-307.379 155.43-458.169 76.555-76.555 392.054-338.697 407.133-338.697s330.578 262.142 408.293 339.857c78.875 78.875 142.67 179.788 160.069 252.863 44.077 180.948-54.516 374.655-212.266 417.572-115.992 31.318-215.746 10.439-317.819-68.435l-38.277-27.838-37.118 27.838c-95.114 71.915-170.509 92.794-274.902 76.555zM677.964 577.437l-38.277-102.073 85.834-11.599-90.474-150.79c-49.877-82.354-90.474-144.99-90.474-136.871 0 6.96 12.759 60.316 27.838 118.312l28.998 105.553h-46.397c-24.358 0-45.237 3.48-45.237 6.96s18.559 66.116 41.757 139.191l41.757 132.231h122.952l-38.277-100.913z" />
<glyph unicode="&#xe934;" glyph-name="cloud" d="M863.979 498.735c56.585-24.664 96.021-81.082 96.021-146.735 0-88.186-71.626-160-159.982-160h-544.036c-88.542 0-159.982 71.634-159.982 160 0 65.628 39.669 122.189 96.381 146.831v0c-0.253 4.357-0.381 8.748-0.381 13.169 0 123.712 100.288 224 224 224 73.534 0 138.793-35.433 179.633-90.157 26.849 16.586 58.49 26.157 92.367 26.157 96.289 0 174.518-77.324 175.979-173.265v0z" />
<glyph unicode="&#xe935;" glyph-name="cloud-sun" d="M798.509 632.988v0c39.285-31.731 64.644-80.018 65.47-134.253 56.585-24.664 96.021-81.082 96.021-146.735 0-88.186-71.626-160-159.982-160h-544.036c-88.542 0-159.982 71.634-159.982 160 0 65.628 39.669 122.189 96.381 146.831-0.253 4.357-0.381 8.748-0.381 13.169 0 123.712 100.288 224 224 224 16.689 0 32.952-1.825 48.599-5.287v0c28.1 59.847 88.911 101.287 159.401 101.287 97.202 0 176-78.798 176-176 0-7.799-0.507-15.48-1.491-23.012zM767.966 652.827c0.023 1.055 0.034 2.113 0.034 3.173 0 79.529-64.471 144-144 144-55.976 0-104.492-31.939-128.319-78.586 40.109-15.27 74.699-41.732 99.953-75.57 26.849 16.586 58.49 26.157 92.367 26.157 28.793 0 55.972-6.914 79.966-19.173v0zM624 960c-8.837 0-16-6.904-16-15.852v-64.295c0-8.755 7.422-15.852 16-15.852 8.837 0 16 6.904 16 15.852v64.295c0 8.755-7.422 15.852-16 15.852v0zM839.458 870.755c-6.248 6.248-16.196 6.432-22.523 0.104l-45.464-45.464c-6.191-6.191-5.961-16.457 0.104-22.523 6.248-6.248 16.196-6.432 22.523-0.104l45.464 45.464c6.191 6.191 5.961 16.457-0.104 22.523v0zM928.703 655.297c0 8.837-6.904 16-15.852 16h-64.295c-8.755 0-15.852-7.422-15.852-16 0-8.837 6.904-16 15.852-16h64.295c8.755 0 15.852 7.422 15.852 16v0zM408.542 870.755c-6.248-6.248-6.432-16.196-0.104-22.523l45.464-45.464c6.191-6.191 16.457-5.961 22.523 0.104 6.248 6.248 6.432 16.196 0.104 22.523l-45.464 45.464c-6.191 6.191-16.457 5.961-22.523-0.104v0z" />
<glyph unicode="&#xe936;" glyph-name="cloud-moon" d="M808.798 624v0c33.374-31.508 54.429-75.924 55.181-125.265 56.585-24.664 96.021-81.082 96.021-146.735 0-88.186-71.626-160-159.982-160h-544.036c-88.542 0-159.982 71.634-159.982 160 0 65.628 39.669 122.189 96.381 146.831-0.253 4.357-0.381 8.748-0.381 13.169 0 123.712 100.288 224 224 224 36.141 0 70.283-8.559 100.51-23.761-2.951 12.777-4.51 26.087-4.51 39.761 0 82.452 56.698 151.662 133.232 170.768 11.244 2.807 22.917 4.533 34.901 5.060-5.268-14.965-8.133-31.061-8.133-47.827 0-79.529 64.471-144 144-144 16.766 0 32.863 2.865 47.827 8.133-0.527-11.984-2.253-23.656-5.060-34.901-8.268-33.122-25.921-62.529-49.97-85.232zM783.265 644.014c18.234 16.098 32.359 36.742 40.602 60.159-2.608-0.115-5.231-0.173-7.867-0.173-97.202 0-176 78.798-176 176 0 2.636 0.058 5.259 0.173 7.867-56.019-19.719-96.173-73.104-96.173-135.867 0-25.584 6.672-49.61 18.371-70.432 12.336-10.658 23.497-22.64 33.262-35.725 26.849 16.586 58.49 26.157 92.367 26.157 35.104 0 67.807-10.277 95.265-27.986v0z" />
<glyph unicode="&#xe937;" glyph-name="cloud-rain" d="M863.979 498.735c56.585-24.664 96.021-81.082 96.021-146.735 0-88.186-71.626-160-159.982-160h-544.036c-88.542 0-159.982 71.634-159.982 160 0 65.628 39.669 122.189 96.381 146.831v0c-0.253 4.357-0.381 8.748-0.381 13.169 0 123.712 100.288 224 224 224 73.534 0 138.793-35.433 179.633-90.157 26.849 16.586 58.49 26.157 92.367 26.157 96.289 0 174.518-77.324 175.979-173.265v0 0zM336 160c-8.837 0-16-6.904-16-15.852v-64.295c0-8.755 7.422-15.852 16-15.852 8.837 0 16 6.904 16 15.852v64.295c0 8.755-7.422 15.852-16 15.852v0zM432 96c-8.837 0-16-6.904-16-15.852v-64.295c0-8.755 7.422-15.852 16-15.852 8.837 0 16 6.904 16 15.852v64.295c0 8.755-7.422 15.852-16 15.852v0zM528 160c-8.837 0-16-6.904-16-15.852v-64.295c0-8.755 7.422-15.852 16-15.852 8.837 0 16 6.904 16 15.852v64.295c0 8.755-7.422 15.852-16 15.852v0zM624 96c-8.837 0-16-6.904-16-15.852v-64.295c0-8.755 7.422-15.852 16-15.852 8.837 0 16 6.904 16 15.852v64.295c0 8.755-7.422 15.852-16 15.852v0zM720 160c-8.837 0-16-6.904-16-15.852v-64.295c0-8.755 7.422-15.852 16-15.852 8.837 0 16 6.904 16 15.852v64.295c0 8.755-7.422 15.852-16 15.852v0z" />
<glyph unicode="&#xe938;" glyph-name="cloud-snow" d="M863.979 498.735c56.585-24.664 96.021-81.082 96.021-146.735 0-88.186-71.626-160-159.982-160h-544.036c-88.542 0-159.982 71.634-159.982 160 0 65.628 39.669 122.189 96.381 146.831v0c-0.253 4.357-0.381 8.748-0.381 13.169 0 123.712 100.288 224 224 224 73.534 0 138.793-35.433 179.633-90.157 26.849 16.586 58.49 26.157 92.367 26.157 96.289 0 174.518-77.324 175.979-173.265v0 0zM320 128c-17.673 0-32-14.204-32-32 0-17.673 14.204-32 32-32 17.673 0 32 14.204 32 32 0 17.673-14.204 32-32 32v0zM416 32c-17.673 0-32-14.204-32-32 0-17.673 14.204-32 32-32 17.673 0 32 14.204 32 32 0 17.673-14.204 32-32 32v0zM544 128c-17.673 0-32-14.204-32-32 0-17.673 14.204-32 32-32 17.673 0 32 14.204 32 32 0 17.673-14.204 32-32 32v0zM640 32c-17.673 0-32-14.204-32-32 0-17.673 14.204-32 32-32 17.673 0 32 14.204 32 32 0 17.673-14.204 32-32 32v0zM736 128c-17.673 0-32-14.204-32-32 0-17.673 14.204-32 32-32 17.673 0 32 14.204 32 32 0 17.673-14.204 32-32 32v0z" />
<glyph unicode="&#xe939;" glyph-name="cloud-sun-snow" d="M798.509 632.988v0 0c39.285-31.731 64.644-80.018 65.47-134.253 56.585-24.664 96.021-81.082 96.021-146.735 0-88.186-71.626-160-159.982-160h-544.036c-88.542 0-159.982 71.634-159.982 160 0 65.628 39.669 122.189 96.381 146.831-0.253 4.357-0.381 8.748-0.381 13.169 0 123.712 100.288 224 224 224 16.689 0 32.952-1.825 48.599-5.287v0c28.1 59.847 88.911 101.287 159.401 101.287 97.202 0 176-78.798 176-176 0-7.799-0.507-15.48-1.491-23.012zM767.966 652.827c0.023 1.055 0.034 2.113 0.034 3.173 0 79.529-64.471 144-144 144-55.976 0-104.492-31.939-128.319-78.586 40.109-15.27 74.699-41.732 99.953-75.57 26.849 16.586 58.49 26.157 92.367 26.157 28.793 0 55.972-6.914 79.966-19.173v0 0zM624 960c-8.837 0-16-6.904-16-15.852v-64.295c0-8.755 7.422-15.852 16-15.852 8.837 0 16 6.904 16 15.852v64.295c0 8.755-7.422 15.852-16 15.852v0zM839.458 870.755c-6.248 6.248-16.196 6.432-22.523 0.104l-45.464-45.464c-6.191-6.191-5.961-16.457 0.104-22.523 6.248-6.248 16.196-6.432 22.523-0.104l45.464 45.464c6.191 6.191 5.961 16.457-0.104 22.523v0zM928.703 655.297c0 8.837-6.904 16-15.852 16h-64.295c-8.755 0-15.852-7.422-15.852-16 0-8.837 6.904-16 15.852-16h64.295c8.755 0 15.852 7.422 15.852 16v0zM408.542 870.755c-6.248-6.248-6.432-16.196-0.104-22.523l45.464-45.464c6.191-6.191 16.457-5.961 22.523 0.104 6.248 6.248 6.432 16.196 0.104 22.523l-45.464 45.464c-6.191 6.191-16.457 5.961-22.523-0.104v0zM320 128c-17.673 0-32-14.204-32-32 0-17.673 14.204-32 32-32 17.673 0 32 14.204 32 32 0 17.673-14.204 32-32 32v0zM416 32c-17.673 0-32-14.204-32-32 0-17.673 14.204-32 32-32 17.673 0 32 14.204 32 32 0 17.673-14.204 32-32 32v0zM544 128c-17.673 0-32-14.204-32-32 0-17.673 14.204-32 32-32 17.673 0 32 14.204 32 32 0 17.673-14.204 32-32 32v0zM640 32c-17.673 0-32-14.204-32-32 0-17.673 14.204-32 32-32 17.673 0 32 14.204 32 32 0 17.673-14.204 32-32 32v0zM736 128c-17.673 0-32-14.204-32-32 0-17.673 14.204-32 32-32 17.673 0 32 14.204 32 32 0 17.673-14.204 32-32 32v0z" />
<glyph unicode="&#xe93a;" glyph-name="cloud-moon-snow" d="M808.798 624.173v0 0c33.374-31.508 54.429-75.924 55.181-125.265 56.585-24.664 96.021-81.082 96.021-146.735 0-88.186-71.626-160-159.982-160h-544.036c-88.542 0-159.982 71.634-159.982 160 0 65.628 39.669 122.189 96.381 146.831-0.253 4.357-0.381 8.748-0.381 13.169 0 123.712 100.288 224 224 224 36.141 0 70.283-8.559 100.51-23.761-2.951 12.777-4.51 26.087-4.51 39.761 0 82.452 56.698 151.662 133.232 170.768 11.244 2.807 22.917 4.533 34.901 5.060-5.268-14.965-8.133-31.061-8.133-47.827 0-79.529 64.471-144 144-144 16.766 0 32.863 2.865 47.827 8.133-0.527-11.984-2.253-23.656-5.060-34.901-8.268-33.122-25.921-62.529-49.97-85.232zM783.265 644.186c18.234 16.098 32.359 36.742 40.602 60.159-2.608-0.115-5.231-0.173-7.867-0.173-97.202 0-176 78.798-176 176 0 2.636 0.058 5.259 0.173 7.867-56.019-19.719-96.173-73.104-96.173-135.867 0-25.584 6.672-49.61 18.371-70.432 12.336-10.658 23.497-22.64 33.262-35.725 26.849 16.586 58.49 26.157 92.367 26.157 35.104 0 67.807-10.277 95.265-27.986v0 0zM320 128c-17.673 0-32-14.204-32-32 0-17.673 14.204-32 32-32 17.673 0 32 14.204 32 32 0 17.673-14.204 32-32 32v0zM416 32c-17.673 0-32-14.204-32-32 0-17.673 14.204-32 32-32 17.673 0 32 14.204 32 32 0 17.673-14.204 32-32 32v0zM544 128c-17.673 0-32-14.204-32-32 0-17.673 14.204-32 32-32 17.673 0 32 14.204 32 32 0 17.673-14.204 32-32 32v0zM640 32c-17.673 0-32-14.204-32-32 0-17.673 14.204-32 32-32 17.673 0 32 14.204 32 32 0 17.673-14.204 32-32 32v0zM736 128c-17.673 0-32-14.204-32-32 0-17.673 14.204-32 32-32 17.673 0 32 14.204 32 32 0 17.673-14.204 32-32 32v0z" />
<glyph unicode="&#xe93b;" glyph-name="cloud-lightning" d="M546.134 288h81.065l-195.199-195.2 47.317 131.2h-82.516l73.598 192h124.801l-49.065-128zM576 192h224.018c88.356 0 159.982 71.814 159.982 160 0 65.653-39.435 122.071-96.021 146.735v0c-1.462 95.941-79.69 173.265-175.979 173.265-33.877 0-65.518-9.571-92.367-26.157-40.84 54.724-106.099 90.157-179.633 90.157-123.712 0-224-100.288-224-224 0-4.421 0.128-8.812 0.381-13.169v0c-56.712-24.642-96.381-81.203-96.381-146.831 0-88.366 71.44-160 159.982-160h177.472l-81.455-224 224 224z" />
<glyph unicode="&#xe93c;" glyph-name="cloud-sun-lightning" d="M546.134 288l49.065 128h-124.801l-73.598-192h82.516l-47.317-131.2 195.199 195.2h-81.065zM433.455 192h-177.472c-88.542 0-159.982 71.634-159.982 160 0 65.628 39.669 122.189 96.381 146.831-0.253 4.357-0.381 8.748-0.381 13.169 0 123.712 100.288 224 224 224 16.689 0 32.952-1.825 48.599-5.287v0c28.1 59.847 88.911 101.287 159.401 101.287 97.202 0 176-78.798 176-176 0-7.799-0.507-15.48-1.491-23.012v0c39.285-31.731 64.644-80.018 65.47-134.253 56.585-24.664 96.021-81.082 96.021-146.735 0-88.186-71.626-160-159.982-160h-224.018l-224-224 81.455 224zM767.966 652.827c0.023 1.055 0.034 2.113 0.034 3.173 0 79.529-64.471 144-144 144-55.976 0-104.492-31.939-128.319-78.586 40.109-15.27 74.699-41.732 99.953-75.57 26.849 16.586 58.49 26.157 92.367 26.157 28.793 0 55.972-6.914 79.966-19.173v0 0zM624 960c-8.837 0-16-6.904-16-15.852v-64.295c0-8.755 7.422-15.852 16-15.852 8.837 0 16 6.904 16 15.852v64.295c0 8.755-7.422 15.852-16 15.852v0zM839.458 870.755c-6.248 6.248-16.196 6.432-22.523 0.104l-45.464-45.464c-6.191-6.191-5.961-16.457 0.104-22.523 6.248-6.248 16.196-6.432 22.523-0.104l45.464 45.464c6.191 6.191 5.961 16.457-0.104 22.523v0zM928.703 655.297c0 8.837-6.904 16-15.852 16h-64.295c-8.755 0-15.852-7.422-15.852-16 0-8.837 6.904-16 15.852-16h64.295c8.755 0 15.852 7.422 15.852 16v0zM408.542 870.755c-6.248-6.248-6.432-16.196-0.104-22.523l45.464-45.464c6.191-6.191 16.457-5.961 22.523 0.104 6.248 6.248 6.432 16.196 0.104 22.523l-45.464 45.464c-6.191 6.191-16.457 5.961-22.523-0.104v0z" />
<glyph unicode="&#xe93d;" glyph-name="cloud-wind" d="M863.979 690.735c56.585-24.664 96.021-81.082 96.021-146.735 0-88.186-71.626-160-159.982-160h-544.036c-88.542 0-159.982 71.634-159.982 160 0 65.628 39.669 122.189 96.381 146.831v0c-0.253 4.357-0.381 8.748-0.381 13.169 0 123.712 100.288 224 224 224 73.534 0 138.793-35.433 179.633-90.157 26.849 16.586 58.49 26.157 92.367 26.157 96.289 0 174.518-77.324 175.979-173.265v0 0zM960 224c0 70.692-57.451 128-128 128-70.692 0-128-57.261-128-128h32c0 53.019 43.089 96 96 96 53.019 0 96-43.089 96-96 0-53.019-42.98-96-96.254-96h-735.746v-32h736.049c70.665 0 127.951 57.451 127.951 128v0zM672 256c0 53.019-43.089 96-96 96-53.019 0-96-42.946-96-95.725v-0.275h32c0 35.346 28.407 64 64 64 35.346 0 64-28.407 64-64 0-35.346-28.706-64-64.187-64h-383.813v-32h384.018c53.009 0 95.982 43.089 95.982 96v0zM800 0c0-35.346-28.407-64-64-64v0c-35.346 0-64 28.631-64 63.816v0.184h32c0-17.673 14.204-32 32-32v0c17.673 0 32 14.204 32 32v0c0 17.673-14.365 32-32.239 32h-447.761v32h448.19c35.241 0 63.81-28.407 63.81-64v0 0z" />
<glyph unicode="&#xe93e;" glyph-name="cloud-raindrops" d="M863.979 498.735c56.585-24.664 96.021-81.082 96.021-146.735 0-88.186-71.626-160-159.982-160h-544.036c-88.542 0-159.982 71.634-159.982 160 0 65.628 39.669 122.189 96.381 146.831v0c-0.253 4.357-0.381 8.748-0.381 13.169 0 123.712 100.288 224 224 224 73.534 0 138.793-35.433 179.633-90.157 26.849 16.586 58.49 26.157 92.367 26.157 96.289 0 174.518-77.324 175.979-173.265v0zM224 36.571c0 46.195 80.337 123.429 80.337 123.429s79.663-77.233 79.663-123.429c0-32.915-26.008-68.571-79.663-68.571s-80.337 32.915-80.337 68.571v0zM448 4.571c0 46.195 80.337 123.429 80.337 123.429s79.663-77.233 79.663-123.429c0-32.915-26.008-68.571-79.663-68.571s-80.337 32.915-80.337 68.571v0zM672 36.571c0 46.195 80.337 123.429 80.337 123.429s79.663-77.233 79.663-123.429c0-32.915-26.008-68.571-79.663-68.571s-80.337 32.915-80.337 68.571v0z" />
<glyph unicode="&#xe93f;" glyph-name="cloud-sun-raindrops" d="M798.509 632.988v0c39.285-31.731 64.644-80.018 65.47-134.253 56.585-24.664 96.021-81.082 96.021-146.735 0-88.186-71.626-160-159.982-160h-544.036c-88.542 0-159.982 71.634-159.982 160 0 65.628 39.669 122.189 96.381 146.831-0.253 4.357-0.381 8.748-0.381 13.169 0 123.712 100.288 224 224 224 16.689 0 32.952-1.825 48.599-5.287v0c28.1 59.847 88.911 101.287 159.401 101.287 97.202 0 176-78.798 176-176 0-7.799-0.507-15.48-1.491-23.012zM767.966 652.827c0.023 1.055 0.034 2.113 0.034 3.173 0 79.529-64.471 144-144 144-55.976 0-104.492-31.939-128.319-78.586 40.109-15.27 74.699-41.732 99.953-75.57 26.849 16.586 58.49 26.157 92.367 26.157 28.793 0 55.972-6.914 79.966-19.173v0zM224 36.571c0 46.195 80.337 123.429 80.337 123.429s79.663-77.233 79.663-123.429c0-32.915-26.008-68.571-79.663-68.571s-80.337 32.915-80.337 68.571v0zM448 4.571c0 46.195 80.337 123.429 80.337 123.429s79.663-77.233 79.663-123.429c0-32.915-26.008-68.571-79.663-68.571s-80.337 32.915-80.337 68.571v0zM672 36.571c0 46.195 80.337 123.429 80.337 123.429s79.663-77.233 79.663-123.429c0-32.915-26.008-68.571-79.663-68.571s-80.337 32.915-80.337 68.571v0zM624 960c-8.837 0-16-6.904-16-15.852v-64.295c0-8.755 7.422-15.852 16-15.852 8.837 0 16 6.904 16 15.852v64.295c0 8.755-7.422 15.852-16 15.852v0zM839.458 870.755c-6.248 6.248-16.196 6.432-22.523 0.104l-45.464-45.464c-6.191-6.191-5.961-16.457 0.104-22.523 6.248-6.248 16.196-6.432 22.523-0.104l45.464 45.464c6.191 6.191 5.961 16.457-0.104 22.523v0zM928.703 655.297c0 8.837-6.904 16-15.852 16h-64.295c-8.755 0-15.852-7.422-15.852-16 0-8.837 6.904-16 15.852-16h64.295c8.755 0 15.852 7.422 15.852 16v0zM408.542 870.755c-6.248-6.248-6.432-16.196-0.104-22.523l45.464-45.464c6.191-6.191 16.457-5.961 22.523 0.104 6.248 6.248 6.432 16.196 0.104 22.523l-45.464 45.464c-6.191 6.191-16.457 5.961-22.523-0.104v0z" />
<glyph unicode="&#xe940;" glyph-name="cloud-snowflakes" d="M863.979 498.735c56.585-24.664 96.021-81.082 96.021-146.735 0-88.186-71.626-160-159.982-160h-544.036c-88.542 0-159.982 71.634-159.982 160 0 65.628 39.669 122.189 96.381 146.831v0c-0.253 4.357-0.381 8.748-0.381 13.169 0 123.712 100.288 224 224 224 73.534 0 138.793-35.433 179.633-90.157 26.849 16.586 58.49 26.157 92.367 26.157 96.289 0 174.518-77.324 175.979-173.265v0zM352 107.713v36.361c0 8.796-7.422 15.926-16 15.926-8.837 0-16-6.875-16-15.926v-36.361l-31.489 18.18c-7.617 4.398-17.504 1.536-21.793-5.893-4.418-7.653-2.046-17.294 5.793-21.82l31.489-18.18-31.489-18.18c-7.617-4.398-10.082-14.391-5.793-21.82 4.418-7.653 13.954-10.419 21.793-5.893l31.489 18.18v-36.361c0-8.796 7.422-15.926 16-15.926 8.837 0 16 6.875 16 15.926v36.361l31.489-18.18c7.617-4.398 17.504-1.536 21.793 5.893 4.418 7.653 2.046 17.294-5.793 21.82l-31.489 18.18 31.489 18.18c7.617 4.398 10.082 14.391 5.793 21.82-4.418 7.653-13.954 10.419-21.793 5.893l-31.489-18.18zM736 107.713v36.361c0 8.796-7.422 15.926-16 15.926-8.837 0-16-6.875-16-15.926v-36.361l-31.489 18.18c-7.617 4.398-17.504 1.536-21.793-5.893-4.418-7.653-2.046-17.294 5.793-21.82l31.489-18.18-31.489-18.18c-7.617-4.398-10.082-14.391-5.793-21.82 4.418-7.653 13.954-10.419 21.793-5.893l31.489 18.18v-36.361c0-8.796 7.422-15.926 16-15.926 8.837 0 16 6.875 16 15.926v36.361l31.489-18.18c7.617-4.398 17.504-1.536 21.793 5.893 4.418 7.653 2.046 17.294-5.793 21.82l-31.489 18.18 31.489 18.18c7.617 4.398 10.082 14.391 5.793 21.82-4.418 7.653-13.954 10.419-21.793 5.893l-31.489-18.18zM544 75.713v36.361c0 8.796-7.422 15.926-16 15.926-8.837 0-16-6.875-16-15.926v-36.361l-31.489 18.18c-7.617 4.398-17.504 1.536-21.793-5.893-4.418-7.653-2.046-17.294 5.793-21.82l31.489-18.18-31.489-18.18c-7.617-4.398-10.082-14.391-5.793-21.82 4.418-7.653 13.954-10.419 21.793-5.893l31.489 18.18v-36.361c0-8.796 7.422-15.926 16-15.926 8.837 0 16 6.875 16 15.926v36.361l31.489-18.18c7.617-4.398 17.504-1.536 21.793 5.893 4.418 7.653 2.046 17.294-5.793 21.82l-31.489 18.18 31.489 18.18c7.617 4.398 10.082 14.391 5.793 21.82-4.418 7.653-13.954 10.419-21.793 5.893l-31.489-18.18z" />
<glyph unicode="&#xe941;" glyph-name="cloud-sun-snowflakes" d="M798.509 632.988v0c39.285-31.731 64.644-80.018 65.47-134.253 56.585-24.664 96.021-81.082 96.021-146.735 0-88.186-71.626-160-159.982-160h-544.036c-88.542 0-159.982 71.634-159.982 160 0 65.628 39.669 122.189 96.381 146.831-0.253 4.357-0.381 8.748-0.381 13.169 0 123.712 100.288 224 224 224 16.689 0 32.952-1.825 48.599-5.287v0c28.1 59.847 88.911 101.287 159.401 101.287 97.202 0 176-78.798 176-176 0-7.799-0.507-15.48-1.491-23.012zM767.966 652.827c0.023 1.055 0.034 2.113 0.034 3.173 0 79.529-64.471 144-144 144-55.976 0-104.492-31.939-128.319-78.586 40.109-15.27 74.699-41.732 99.953-75.57 26.849 16.586 58.49 26.157 92.367 26.157 28.793 0 55.972-6.914 79.966-19.173v0zM352 107.713v36.361c0 8.796-7.422 15.926-16 15.926-8.837 0-16-6.875-16-15.926v-36.361l-31.489 18.18c-7.617 4.398-17.504 1.536-21.793-5.893-4.418-7.653-2.046-17.294 5.793-21.82l31.489-18.18-31.489-18.18c-7.617-4.398-10.082-14.391-5.793-21.82 4.418-7.653 13.954-10.419 21.793-5.893l31.489 18.18v-36.361c0-8.796 7.422-15.926 16-15.926 8.837 0 16 6.875 16 15.926v36.361l31.489-18.18c7.617-4.398 17.504-1.536 21.793 5.893 4.418 7.653 2.046 17.294-5.793 21.82l-31.489 18.18 31.489 18.18c7.617 4.398 10.082 14.391 5.793 21.82-4.418 7.653-13.954 10.419-21.793 5.893l-31.489-18.18zM736 107.713v36.361c0 8.796-7.422 15.926-16 15.926-8.837 0-16-6.875-16-15.926v-36.361l-31.489 18.18c-7.617 4.398-17.504 1.536-21.793-5.893-4.418-7.653-2.046-17.294 5.793-21.82l31.489-18.18-31.489-18.18c-7.617-4.398-10.082-14.391-5.793-21.82 4.418-7.653 13.954-10.419 21.793-5.893l31.489 18.18v-36.361c0-8.796 7.422-15.926 16-15.926 8.837 0 16 6.875 16 15.926v36.361l31.489-18.18c7.617-4.398 17.504-1.536 21.793 5.893 4.418 7.653 2.046 17.294-5.793 21.82l-31.489 18.18 31.489 18.18c7.617 4.398 10.082 14.391 5.793 21.82-4.418 7.653-13.954 10.419-21.793 5.893l-31.489-18.18zM544 75.713v36.361c0 8.796-7.422 15.926-16 15.926-8.837 0-16-6.875-16-15.926v-36.361l-31.489 18.18c-7.617 4.398-17.504 1.536-21.793-5.893-4.418-7.653-2.046-17.294 5.793-21.82l31.489-18.18-31.489-18.18c-7.617-4.398-10.082-14.391-5.793-21.82 4.418-7.653 13.954-10.419 21.793-5.893l31.489 18.18v-36.361c0-8.796 7.422-15.926 16-15.926 8.837 0 16 6.875 16 15.926v36.361l31.489-18.18c7.617-4.398 17.504-1.536 21.793 5.893 4.418 7.653 2.046 17.294-5.793 21.82l-31.489 18.18 31.489 18.18c7.617 4.398 10.082 14.391 5.793 21.82-4.418 7.653-13.954 10.419-21.793 5.893l-31.489-18.18zM624 960c-8.837 0-16-6.904-16-15.852v-64.295c0-8.755 7.422-15.852 16-15.852 8.837 0 16 6.904 16 15.852v64.295c0 8.755-7.422 15.852-16 15.852v0zM839.458 870.755c-6.248 6.248-16.196 6.432-22.523 0.104l-45.464-45.464c-6.191-6.191-5.961-16.457 0.104-22.523 6.248-6.248 16.196-6.432 22.523-0.104l45.464 45.464c6.191 6.191 5.961 16.457-0.104 22.523v0zM928.703 655.297c0 8.837-6.904 16-15.852 16h-64.295c-8.755 0-15.852-7.422-15.852-16 0-8.837 6.904-16 15.852-16h64.295c8.755 0 15.852 7.422 15.852 16v0zM408.542 870.755c-6.248-6.248-6.432-16.196-0.104-22.523l45.464-45.464c6.191-6.191 16.457-5.961 22.523 0.104 6.248 6.248 6.432 16.196 0.104 22.523l-45.464 45.464c-6.191 6.191-16.457 5.961-22.523-0.104v0z" />
<glyph unicode="&#xe942;" glyph-name="clouds" d="M506.797 223.255c39.151-5.343 69.203-38.791 69.203-79.255 0-44.491-35.911-80-80.209-80h-255.582c-44.381 0-80.209 35.817-80.209 80 0 38.919 27.479 70.964 64.013 78.381v0c-0.009 0.539-0.013 1.078-0.013 1.619 0 53.019 42.981 96 96 96 29.659 0 56.177-13.45 73.786-34.583 7.13 1.689 14.567 2.583 22.214 2.583 42.077 0 77.831-27.070 90.797-64.745v0zM529.721 250.808c40.305-12.779 70.961-47.865 77.139-90.808v0h193.159c88.356 0 159.982 71.814 159.982 160 0 65.653-39.435 122.071-96.021 146.735v0c-1.462 95.941-79.69 173.265-175.979 173.265-33.877 0-65.518-9.571-92.367-26.157-40.84 54.724-106.099 90.157-179.633 90.157-123.712 0-224-100.288-224-224 0-4.421 0.128-8.812 0.381-13.169v0c-56.712-24.642-96.381-81.203-96.381-146.831 0-45.569 18.999-86.689 49.544-115.83 11.657 18.256 28.458 32.922 48.357 41.932v0c10.471 60.16 62.944 105.898 126.099 105.898 32.707 0 62.548-12.267 85.175-32.451 3.569 0.299 7.179 0.451 10.825 0.451 49.491 0 92.421-28.088 113.721-69.192v0 0zM877.596 549.666c29.54 11.728 50.404 40.422 50.404 74.334 0 40.465-30.052 73.913-69.203 79.255v0c-12.966 37.675-48.72 64.745-90.797 64.745-7.646 0-15.084-0.894-22.214-2.583-17.61 21.133-44.127 34.583-73.786 34.583-53.019 0-96-42.981-96-96 0-0.541 0.004-1.080 0.013-1.619v0c-7.41-1.504-14.447-4.022-20.958-7.404 17.842-11.565 34.153-25.29 48.563-40.805 25.789 11.46 54.342 17.828 84.382 17.828 84.336 0 156.949-50.192 189.596-122.334v0 0z" />
<glyph unicode="&#xe943;" glyph-name="cloud-fog" d="M96.459 307.769c-0.304 4.037-0.459 8.116-0.459 12.231 0 65.628 39.669 122.189 96.381 146.831v0c-0.253 4.357-0.381 8.748-0.381 13.169 0 4.246 0.118 8.465 0.351 12.653v0c-0.23 1.079-0.351 2.199-0.351 3.347 0 1.941 0.363 3.824 1.026 5.574 10.855 113.59 106.54 202.426 222.974 202.426 73.534 0 138.793-35.433 179.633-90.157 26.849 16.586 58.49 26.157 92.367 26.157 96.289 0 174.518-77.324 175.979-173.265v0c56.585-24.664 96.021-81.082 96.021-146.735 0-4.115-0.156-8.194-0.462-12.232 0.301-1.208 0.462-2.47 0.462-3.768 0-2.491-0.594-4.885-1.65-7.028-11.18-77.326-77.809-136.972-158.332-136.972h-544.036c-80.735 0-147.251 59.559-158.353 137.053-1.036 2.101-1.629 4.458-1.629 6.947 0 1.29 0.159 2.553 0.459 3.769v0zM128 320h800c0 11.050-1.406 21.772-4.047 32h-791.905c-2.642-10.232-4.048-20.956-4.048-32zM132.047 288c2.932-11.353 7.386-22.096 13.13-32v0h765.65c5.743 9.908 10.195 20.652 13.125 32h-791.905zM272.889 608c-8.781-9.811-16.568-20.531-23.203-32v0h332.628c-6.635 11.469-14.422 22.189-23.203 32h-286.222zM309.831 640h212.339c-30.41 20.219-66.914 32-106.169 32s-75.76-11.781-106.169-32zM235.205 544.785c-3.775-10.533-6.655-21.492-8.55-32.785v0h597.151c-4.027 11.393-9.447 22.128-16.055 32h-567.489c-1.767 0-3.467 0.276-5.058 0.785v0 0zM597.483 576h181.035c-24.732 20.013-56.225 32-90.517 32s-65.786-11.987-90.517-32zM224 480c0-10.903 0.909-21.593 2.655-32h604.466c0.581 5.253 0.879 10.592 0.879 16s-0.298 10.747-0.879 16h-607.121zM172.013 416.52c-10.636-9.264-19.728-20.251-26.84-32.52v0h765.65c-7.119 12.275-16.219 23.261-26.858 32.522-1.285-0.34-2.633-0.522-4.022-0.522h-703.886c-1.393 0-2.749 0.181-4.044 0.52v0 0zM171.439 224c22.598-19.916 52.251-32 84.651-32h543.82c32.458 0 62.097 12.095 84.67 32h-713.141z" />
<glyph unicode="&#xe944;" glyph-name="thermometer-low" d="M576 238.876v593.009c0 35.41-28.407 64.115-64 64.115-35.346 0-64-28.472-64-64.115v-593.009c-38.259-22.132-64-63.498-64-110.876 0-70.692 57.308-128 128-128s128 57.308 128 128c0 47.378-25.741 88.744-64 110.876zM638.996 272.003c39.862-35.181 65.004-86.656 65.004-144.003 0-106.039-85.961-192-192-192s-192 85.961-192 192c0 57.346 25.141 108.82 65.002 144.002-0.661 5.27-1.002 10.639-1.002 16.088v543.82c0 70.556 57.308 128.090 128 128.090 70.549 0 128-57.348 128-128.090v-543.82c0-5.447-0.342-10.816-1.004-16.087v0 0zM512 32c53.019 0 96 42.981 96 96s-42.981 96-96 96c-53.019 0-96-42.981-96-96s42.981-96 96-96v0z" />
<glyph unicode="&#xe945;" glyph-name="thermometer-full" d="M543.577 218.686c37.507-13.059 64.423-48.729 64.423-90.686 0-53.019-42.981-96-96-96s-96 42.981-96 96c0 41.959 26.919 77.632 64.43 90.688-0.283 1.715-0.43 3.476-0.43 5.272v608.080c0 17.924 14.327 31.96 32 31.96 17.796 0 32-14.309 32-31.96v-608.080c0-1.801-0.145-3.562-0.423-5.274v0zM576 238.876v593.009c0 35.41-28.407 64.115-64 64.115-35.346 0-64-28.472-64-64.115v-593.009c-38.259-22.132-64-63.498-64-110.876 0-70.692 57.308-128 128-128s128 57.308 128 128c0 47.378-25.741 88.744-64 110.876zM638.996 272.003c39.862-35.181 65.004-86.656 65.004-144.003 0-106.039-85.961-192-192-192s-192 85.961-192 192c0 57.346 25.141 108.82 65.002 144.002-0.661 5.27-1.002 10.639-1.002 16.088v543.82c0 70.556 57.308 128.090 128 128.090 70.549 0 128-57.348 128-128.090v-543.82c0-5.447-0.342-10.816-1.004-16.087v0 0z" />
<glyph unicode="&#xe946;" glyph-name="archive2" d="M418.24 793.536l-185.472 49.696c-17.056 4.576-34.592-5.568-39.168-22.624l-190.496-710.912c-4.576-17.088 5.568-34.624 22.656-39.232l185.44-49.696c17.056-4.576 34.624 5.568 39.2 22.624l190.496 710.944c4.544 17.056-5.568 34.624-22.656 39.2zM248.96 161.824c-13.728-51.232-66.336-81.6-117.568-67.872s-81.6 66.336-67.872 117.568 66.336 81.632 117.568 67.872c51.232-13.728 81.6-66.368 67.872-117.568zM285.728 298.976l-185.44 49.696 99.36 370.912 185.472-49.728-99.392-370.88zM606.016 224c-26.528 0-48-21.504-48-48s21.472-48 48-48c26.496 0 48 21.504 48 48s-21.504 48-48 48zM345.952 647.264l-123.68 33.12-8.256-30.912 123.648-33.12 8.288 30.912zM321.056 554.528l8.32 30.912-123.648 33.12-8.288-30.912 123.616-33.12zM168.16 231.104c-25.6 6.88-51.936-8.352-58.784-33.952-6.88-25.632 8.32-51.936 33.952-58.784 25.6-6.88 51.936 8.32 58.784 33.952 6.848 25.6-8.352 51.904-33.952 58.784zM958.016 672h-128v-32h128v32zM958.016 544h-128v-32h128v32zM958.016 608h-128v-32h128v32zM894.016 224c-26.528 0-48-21.504-48-48s21.472-48 48-48c26.496 0 48 21.504 48 48s-21.504 48-48 48zM990.016 832h-192c-17.696 0-32-14.304-32-32v-736c0-17.664 14.304-32 32-32h192c17.664 0 32 14.336 32 32v736c0 17.696-14.368 32-32 32zM894.016 80c-53.024 0-96 43.008-96 96 0 53.024 42.976 96 96 96 52.992 0 96-42.976 96-96 0-52.992-43.008-96-96-96zM990.016 320h-192v384h192v-384zM670.016 672h-128v-32h128v32zM670.016 544h-128v-32h128v32zM702.016 832h-192c-17.696 0-32-14.304-32-32v-736c0-17.664 14.304-32 32-32h192c17.664 0 32 14.336 32 32v736c0 17.696-14.368 32-32 32zM606.016 81.984c-53.024 0-96 43.008-96 96 0 53.024 42.976 96 96 96 52.992 0 96-42.976 96-96 0-52.992-43.008-96-96-96zM702.016 320h-192v384h192v-384zM670.016 608h-128v-32h128v32zM180.864 525.856l123.616-33.12 8.32 30.912-123.648 33.12-8.288-30.912z" />
<glyph unicode="&#xe947;" glyph-name="wind" d="M960 512c0 70.692-57.451 128-128 128-70.692 0-128-57.261-128-128h64c0 35.346 28.407 64 64 64 35.346 0 64-28.407 64-64 0-35.346-28.472-64-64.115-64h-735.885v-64h736.049c70.665 0 127.951 57.451 127.951 128v0zM672 640c0 70.692-57.451 128-128 128-70.692 0-128-57.261-128-127.907v-0.093h64c0 35.346 28.407 64 64 64 35.346 0 64-28.407 64-64 0-35.346-28.706-64-64.187-64h-383.813v-64h384.122c70.625 0 127.878 57.451 127.878 128v0zM832 224c0-53.019-43.089-96-96-96v0c-53.019 0-96 42.946-96 95.725v0.275h64c0-17.673 14.204-32 32-32v0c17.673 0 32 14.204 32 32v0c0 17.673-14.365 32-32.239 32h-447.761v64h447.996c53.022 0 96.004-43.089 96.004-96v0 0z" />
</font>
</defs>
</svg>
